G04 #@! TF.GenerationSoftware,KiCad,Pcbnew,8.0.1-8.0.1-1~ubuntu22.04.1*
G04 #@! TF.CreationDate,2024-03-31T08:55:46-05:00*
G04 #@! TF.ProjectId,controller,636f6e74-726f-46c6-9c65-722e6b696361,rev?*
G04 #@! TF.SameCoordinates,Original*
G04 #@! TF.FileFunction,Soldermask,Bot*
G04 #@! TF.FilePolarity,Negative*
%FSLAX46Y46*%
G04 Gerber Fmt 4.6, Leading zero omitted, Abs format (unit mm)*
G04 Created by KiCad (PCBNEW 8.0.1-8.0.1-1~ubuntu22.04.1) date 2024-03-31 08:55:46*
%MOMM*%
%LPD*%
G01*
G04 APERTURE LIST*
G04 Aperture macros list*
%AMRoundRect*
0 Rectangle with rounded corners*
0 $1 Rounding radius*
0 $2 $3 $4 $5 $6 $7 $8 $9 X,Y pos of 4 corners*
0 Add a 4 corners polygon primitive as box body*
4,1,4,$2,$3,$4,$5,$6,$7,$8,$9,$2,$3,0*
0 Add four circle primitives for the rounded corners*
1,1,$1+$1,$2,$3*
1,1,$1+$1,$4,$5*
1,1,$1+$1,$6,$7*
1,1,$1+$1,$8,$9*
0 Add four rect primitives between the rounded corners*
20,1,$1+$1,$2,$3,$4,$5,0*
20,1,$1+$1,$4,$5,$6,$7,0*
20,1,$1+$1,$6,$7,$8,$9,0*
20,1,$1+$1,$8,$9,$2,$3,0*%
%AMOutline5P*
0 Free polygon, 5 corners , with rotation*
0 The origin of the aperture is its center*
0 number of corners: always 5*
0 $1 to $10 corner X, Y*
0 $11 Rotation angle, in degrees counterclockwise*
0 create outline with 5 corners*
4,1,5,$1,$2,$3,$4,$5,$6,$7,$8,$9,$10,$1,$2,$11*%
%AMOutline6P*
0 Free polygon, 6 corners , with rotation*
0 The origin of the aperture is its center*
0 number of corners: always 6*
0 $1 to $12 corner X, Y*
0 $13 Rotation angle, in degrees counterclockwise*
0 create outline with 6 corners*
4,1,6,$1,$2,$3,$4,$5,$6,$7,$8,$9,$10,$11,$12,$1,$2,$13*%
%AMOutline7P*
0 Free polygon, 7 corners , with rotation*
0 The origin of the aperture is its center*
0 number of corners: always 7*
0 $1 to $14 corner X, Y*
0 $15 Rotation angle, in degrees counterclockwise*
0 create outline with 7 corners*
4,1,7,$1,$2,$3,$4,$5,$6,$7,$8,$9,$10,$11,$12,$13,$14,$1,$2,$15*%
%AMOutline8P*
0 Free polygon, 8 corners , with rotation*
0 The origin of the aperture is its center*
0 number of corners: always 8*
0 $1 to $16 corner X, Y*
0 $17 Rotation angle, in degrees counterclockwise*
0 create outline with 8 corners*
4,1,8,$1,$2,$3,$4,$5,$6,$7,$8,$9,$10,$11,$12,$13,$14,$15,$16,$1,$2,$17*%
%AMFreePoly0*
4,1,5,0.400000,-0.600000,-0.400000,-0.600000,-0.400000,0.600000,0.400000,0.600000,0.400000,-0.600000,0.400000,-0.600000,$1*%
G04 Aperture macros list end*
%ADD10C,0.010000*%
%ADD11C,3.700000*%
%ADD12C,0.625000*%
%ADD13RoundRect,0.381000X-0.894000X-0.381000X0.894000X-0.381000X0.894000X0.381000X-0.894000X0.381000X0*%
%ADD14RoundRect,0.762000X-0.000010X-0.000010X0.000010X-0.000010X0.000010X0.000010X-0.000010X0.000010X0*%
%ADD15RoundRect,0.381000X-0.877000X-0.381000X0.877000X-0.381000X0.877000X0.381000X-0.877000X0.381000X0*%
%ADD16RoundRect,0.381000X-0.381000X-0.381000X0.381000X-0.381000X0.381000X0.381000X-0.381000X0.381000X0*%
%ADD17RoundRect,0.381000X-0.750000X-0.381000X0.750000X-0.381000X0.750000X0.381000X-0.750000X0.381000X0*%
%ADD18R,0.800000X1.200000*%
%ADD19FreePoly0,0.000000*%
%ADD20Outline5P,-0.400000X0.400000X0.120000X0.400000X0.400000X0.120000X0.400000X-0.400000X-0.400000X-0.400000X0.000000*%
%ADD21Outline5P,-0.400000X0.120000X-0.120000X0.400000X0.400000X0.400000X0.400000X-0.400000X-0.400000X-0.400000X0.000000*%
%ADD22R,0.800000X0.700000*%
%ADD23R,0.800000X0.600000*%
%ADD24R,1.200000X0.800000*%
%ADD25R,0.800000X0.800000*%
%ADD26Outline5P,-0.400000X0.400000X0.400000X0.400000X0.400000X-0.400000X-0.120000X-0.400000X-0.400000X-0.120000X0.000000*%
%ADD27Outline5P,-0.400000X0.400000X0.400000X0.400000X0.400000X-0.120000X0.120000X-0.400000X-0.400000X-0.400000X0.000000*%
%ADD28C,0.700000*%
%ADD29O,1.700000X0.900000*%
%ADD30O,2.400000X0.900000*%
%ADD31RoundRect,0.100000X0.130000X0.100000X-0.130000X0.100000X-0.130000X-0.100000X0.130000X-0.100000X0*%
%ADD32RoundRect,0.100000X0.100000X-0.130000X0.100000X0.130000X-0.100000X0.130000X-0.100000X-0.130000X0*%
%ADD33RoundRect,0.100000X-0.100000X0.130000X-0.100000X-0.130000X0.100000X-0.130000X0.100000X0.130000X0*%
%ADD34RoundRect,0.147500X0.147500X0.172500X-0.147500X0.172500X-0.147500X-0.172500X0.147500X-0.172500X0*%
%ADD35R,0.200000X0.200000*%
%ADD36RoundRect,0.135000X-0.135000X-0.185000X0.135000X-0.185000X0.135000X0.185000X-0.135000X0.185000X0*%
%ADD37C,0.650000*%
%ADD38R,0.880000X0.280000*%
%ADD39C,0.640000*%
%ADD40O,1.440000X0.840000*%
%ADD41O,1.604000X1.004000*%
%ADD42C,1.000000*%
%ADD43R,1.700000X1.700000*%
%ADD44O,1.700000X1.700000*%
%ADD45C,1.900000*%
%ADD46C,3.500000*%
%ADD47C,1.300000*%
%ADD48R,0.508000X1.219200*%
%ADD49RoundRect,0.100000X-0.130000X-0.100000X0.130000X-0.100000X0.130000X0.100000X-0.130000X0.100000X0*%
G04 #@! TA.AperFunction,Profile*
%ADD50C,0.254000*%
G04 #@! TD*
G04 #@! TA.AperFunction,Profile*
%ADD51C,0.010000*%
G04 #@! TD*
G04 APERTURE END LIST*
D10*
X179701000Y-85926000D02*
X179723000Y-85927000D01*
X179745000Y-85930000D01*
X179767000Y-85934000D01*
X179789000Y-85939000D01*
X179810000Y-85946000D01*
X179831000Y-85953000D01*
X179852000Y-85962000D01*
X179872000Y-85971000D01*
X179891000Y-85982000D01*
X179910000Y-85994000D01*
X179929000Y-86006000D01*
X179946000Y-86020000D01*
X179963000Y-86034000D01*
X179980000Y-86049000D01*
X179995000Y-86066000D01*
X180009000Y-86083000D01*
X180023000Y-86100000D01*
X180035000Y-86119000D01*
X180047000Y-86137000D01*
X180058000Y-86157000D01*
X180067000Y-86177000D01*
X180076000Y-86198000D01*
X180083000Y-86219000D01*
X180090000Y-86240000D01*
X180095000Y-86262000D01*
X180099000Y-86284000D01*
X180102000Y-86306000D01*
X180103000Y-86328000D01*
X180104000Y-86350000D01*
X180104000Y-86650000D01*
X180103000Y-86672000D01*
X180102000Y-86694000D01*
X180099000Y-86716000D01*
X180095000Y-86738000D01*
X180090000Y-86760000D01*
X180083000Y-86781000D01*
X180076000Y-86802000D01*
X180067000Y-86823000D01*
X180058000Y-86843000D01*
X180047000Y-86862000D01*
X180035000Y-86881000D01*
X180023000Y-86900000D01*
X180009000Y-86917000D01*
X179995000Y-86934000D01*
X179980000Y-86951000D01*
X179963000Y-86966000D01*
X179946000Y-86980000D01*
X179929000Y-86994000D01*
X179910000Y-87006000D01*
X179891000Y-87018000D01*
X179872000Y-87029000D01*
X179852000Y-87038000D01*
X179831000Y-87047000D01*
X179810000Y-87054000D01*
X179789000Y-87061000D01*
X179767000Y-87066000D01*
X179745000Y-87070000D01*
X179723000Y-87073000D01*
X179701000Y-87074000D01*
X179679000Y-87075000D01*
X179657000Y-87074000D01*
X179635000Y-87073000D01*
X179613000Y-87070000D01*
X179591000Y-87066000D01*
X179569000Y-87061000D01*
X179548000Y-87054000D01*
X179527000Y-87047000D01*
X179506000Y-87038000D01*
X179486000Y-87029000D01*
X179466000Y-87018000D01*
X179448000Y-87006000D01*
X179429000Y-86994000D01*
X179412000Y-86980000D01*
X179395000Y-86966000D01*
X179378000Y-86951000D01*
X179363000Y-86934000D01*
X179349000Y-86917000D01*
X179335000Y-86900000D01*
X179323000Y-86881000D01*
X179311000Y-86862000D01*
X179300000Y-86843000D01*
X179291000Y-86823000D01*
X179282000Y-86802000D01*
X179275000Y-86781000D01*
X179268000Y-86760000D01*
X179263000Y-86738000D01*
X179259000Y-86716000D01*
X179256000Y-86694000D01*
X179255000Y-86672000D01*
X179254000Y-86650000D01*
X179254000Y-86350000D01*
X179255000Y-86328000D01*
X179256000Y-86306000D01*
X179259000Y-86284000D01*
X179263000Y-86262000D01*
X179268000Y-86240000D01*
X179275000Y-86219000D01*
X179282000Y-86198000D01*
X179291000Y-86177000D01*
X179300000Y-86157000D01*
X179311000Y-86137000D01*
X179323000Y-86119000D01*
X179335000Y-86100000D01*
X179349000Y-86083000D01*
X179363000Y-86066000D01*
X179378000Y-86049000D01*
X179395000Y-86034000D01*
X179412000Y-86020000D01*
X179429000Y-86006000D01*
X179448000Y-85994000D01*
X179466000Y-85982000D01*
X179486000Y-85971000D01*
X179506000Y-85962000D01*
X179527000Y-85953000D01*
X179548000Y-85946000D01*
X179569000Y-85939000D01*
X179591000Y-85934000D01*
X179613000Y-85930000D01*
X179635000Y-85927000D01*
X179657000Y-85926000D01*
X179679000Y-85925000D01*
X179701000Y-85926000D01*
G36*
X179701000Y-85926000D02*
G01*
X179723000Y-85927000D01*
X179745000Y-85930000D01*
X179767000Y-85934000D01*
X179789000Y-85939000D01*
X179810000Y-85946000D01*
X179831000Y-85953000D01*
X179852000Y-85962000D01*
X179872000Y-85971000D01*
X179891000Y-85982000D01*
X179910000Y-85994000D01*
X179929000Y-86006000D01*
X179946000Y-86020000D01*
X179963000Y-86034000D01*
X179980000Y-86049000D01*
X179995000Y-86066000D01*
X180009000Y-86083000D01*
X180023000Y-86100000D01*
X180035000Y-86119000D01*
X180047000Y-86137000D01*
X180058000Y-86157000D01*
X180067000Y-86177000D01*
X180076000Y-86198000D01*
X180083000Y-86219000D01*
X180090000Y-86240000D01*
X180095000Y-86262000D01*
X180099000Y-86284000D01*
X180102000Y-86306000D01*
X180103000Y-86328000D01*
X180104000Y-86350000D01*
X180104000Y-86650000D01*
X180103000Y-86672000D01*
X180102000Y-86694000D01*
X180099000Y-86716000D01*
X180095000Y-86738000D01*
X180090000Y-86760000D01*
X180083000Y-86781000D01*
X180076000Y-86802000D01*
X180067000Y-86823000D01*
X180058000Y-86843000D01*
X180047000Y-86862000D01*
X180035000Y-86881000D01*
X180023000Y-86900000D01*
X180009000Y-86917000D01*
X179995000Y-86934000D01*
X179980000Y-86951000D01*
X179963000Y-86966000D01*
X179946000Y-86980000D01*
X179929000Y-86994000D01*
X179910000Y-87006000D01*
X179891000Y-87018000D01*
X179872000Y-87029000D01*
X179852000Y-87038000D01*
X179831000Y-87047000D01*
X179810000Y-87054000D01*
X179789000Y-87061000D01*
X179767000Y-87066000D01*
X179745000Y-87070000D01*
X179723000Y-87073000D01*
X179701000Y-87074000D01*
X179679000Y-87075000D01*
X179657000Y-87074000D01*
X179635000Y-87073000D01*
X179613000Y-87070000D01*
X179591000Y-87066000D01*
X179569000Y-87061000D01*
X179548000Y-87054000D01*
X179527000Y-87047000D01*
X179506000Y-87038000D01*
X179486000Y-87029000D01*
X179466000Y-87018000D01*
X179448000Y-87006000D01*
X179429000Y-86994000D01*
X179412000Y-86980000D01*
X179395000Y-86966000D01*
X179378000Y-86951000D01*
X179363000Y-86934000D01*
X179349000Y-86917000D01*
X179335000Y-86900000D01*
X179323000Y-86881000D01*
X179311000Y-86862000D01*
X179300000Y-86843000D01*
X179291000Y-86823000D01*
X179282000Y-86802000D01*
X179275000Y-86781000D01*
X179268000Y-86760000D01*
X179263000Y-86738000D01*
X179259000Y-86716000D01*
X179256000Y-86694000D01*
X179255000Y-86672000D01*
X179254000Y-86650000D01*
X179254000Y-86350000D01*
X179255000Y-86328000D01*
X179256000Y-86306000D01*
X179259000Y-86284000D01*
X179263000Y-86262000D01*
X179268000Y-86240000D01*
X179275000Y-86219000D01*
X179282000Y-86198000D01*
X179291000Y-86177000D01*
X179300000Y-86157000D01*
X179311000Y-86137000D01*
X179323000Y-86119000D01*
X179335000Y-86100000D01*
X179349000Y-86083000D01*
X179363000Y-86066000D01*
X179378000Y-86049000D01*
X179395000Y-86034000D01*
X179412000Y-86020000D01*
X179429000Y-86006000D01*
X179448000Y-85994000D01*
X179466000Y-85982000D01*
X179486000Y-85971000D01*
X179506000Y-85962000D01*
X179527000Y-85953000D01*
X179548000Y-85946000D01*
X179569000Y-85939000D01*
X179591000Y-85934000D01*
X179613000Y-85930000D01*
X179635000Y-85927000D01*
X179657000Y-85926000D01*
X179679000Y-85925000D01*
X179701000Y-85926000D01*
G37*
D11*
X88000000Y-125000000D03*
X160000000Y-131000000D03*
X88000000Y-75000000D03*
X160000000Y-69000000D03*
D12*
X158012287Y-86281996D03*
X156244520Y-84514229D03*
X157128403Y-85398113D03*
X157128403Y-87165879D03*
X156244520Y-86281996D03*
X155360637Y-85398113D03*
X155360637Y-87165879D03*
X156244520Y-88049763D03*
X154476753Y-86281996D03*
D13*
X89625000Y-86500000D03*
D14*
X90500000Y-86500000D03*
D15*
X89980000Y-89040000D03*
D16*
X90500000Y-89040000D03*
D17*
X89992000Y-91580000D03*
D16*
X90500000Y-91580000D03*
D17*
X89992000Y-94120000D03*
D16*
X90500000Y-94120000D03*
D17*
X89992000Y-96660000D03*
D16*
X90500000Y-96660000D03*
D17*
X89992000Y-99200000D03*
D16*
X90500000Y-99200000D03*
D17*
X89992000Y-101740000D03*
D16*
X90500000Y-101740000D03*
D17*
X89992000Y-104280000D03*
D16*
X90500000Y-104280000D03*
D17*
X89992000Y-106820000D03*
D16*
X90500000Y-106820000D03*
D17*
X89992000Y-109360000D03*
D16*
X90500000Y-109360000D03*
D17*
X89992000Y-111900000D03*
D16*
X90500000Y-111900000D03*
D17*
X89992000Y-114440000D03*
D16*
X90500000Y-114440000D03*
D18*
X97210000Y-75000000D03*
X98480000Y-75000000D03*
X99750000Y-75000000D03*
X101020000Y-75000000D03*
X102290000Y-75000000D03*
X103560000Y-75000000D03*
X104830000Y-75000000D03*
X106100000Y-75000000D03*
X107370000Y-75000000D03*
X108640000Y-75000000D03*
X109910000Y-75000000D03*
X111180000Y-75000000D03*
X112450000Y-75000000D03*
X113720000Y-75000000D03*
X114990000Y-75000000D03*
X116260000Y-75000000D03*
X117530000Y-75000000D03*
X118800000Y-75000000D03*
X120070000Y-75000000D03*
X121340000Y-75000000D03*
X122610000Y-75000000D03*
X123880000Y-75000000D03*
D19*
X125150000Y-75000000D03*
X126420000Y-75000000D03*
D18*
X127690000Y-75000000D03*
X128960000Y-75000000D03*
X130230000Y-75000000D03*
D20*
X131500000Y-75400000D03*
D21*
X132770000Y-75400000D03*
D18*
X134040000Y-75000000D03*
X135310000Y-75000000D03*
X136580000Y-75000000D03*
X137850000Y-75000000D03*
X139120000Y-75000000D03*
X140390000Y-75000000D03*
X141660000Y-75000000D03*
X142930000Y-75000000D03*
X144200000Y-75000000D03*
X145470000Y-75000000D03*
D22*
X146740000Y-75350000D03*
D23*
X148010000Y-75400000D03*
D22*
X149280000Y-75340000D03*
D18*
X150550000Y-75000000D03*
X151820000Y-75000000D03*
D19*
X153090000Y-75000000D03*
D18*
X154360000Y-75000000D03*
X155630000Y-75000000D03*
X156900000Y-75000000D03*
X158170000Y-75000000D03*
X159440000Y-75000000D03*
X160710000Y-75000000D03*
X161980000Y-75000000D03*
X163250000Y-75000000D03*
X164520000Y-75000000D03*
X165790000Y-75000000D03*
D24*
X169000000Y-78410000D03*
X169000000Y-79680000D03*
X169000000Y-80950000D03*
X169000000Y-82220000D03*
X169000000Y-83490000D03*
X169000000Y-84760000D03*
X169000000Y-86030000D03*
X169000000Y-87300000D03*
X169000000Y-88570000D03*
X169000000Y-89840000D03*
X169000000Y-91110000D03*
X169000000Y-92380000D03*
X169000000Y-93650000D03*
X169000000Y-94920000D03*
X169000000Y-96190000D03*
X169000000Y-97460000D03*
X169000000Y-98730000D03*
X169000000Y-100000000D03*
X169000000Y-101270000D03*
X169000000Y-102540000D03*
X169000000Y-103810000D03*
X169000000Y-105080000D03*
X169000000Y-106350000D03*
X169000000Y-107620000D03*
X169000000Y-108890000D03*
X169000000Y-110160000D03*
X169000000Y-111430000D03*
X169000000Y-112700000D03*
X169000000Y-113970000D03*
X169000000Y-115240000D03*
X169000000Y-116510000D03*
X169000000Y-117780000D03*
X169000000Y-119050000D03*
X169000000Y-120320000D03*
X169000000Y-121590000D03*
D18*
X165790000Y-125000000D03*
X164520000Y-125000000D03*
X163250000Y-125000000D03*
X161980000Y-125000000D03*
X160710000Y-125000000D03*
X159440000Y-125000000D03*
X158170000Y-125000000D03*
X156900000Y-125000000D03*
X155630000Y-125000000D03*
X154360000Y-125000000D03*
D19*
X153090000Y-125000000D03*
D18*
X151820000Y-125000000D03*
X150550000Y-125000000D03*
D25*
X149280000Y-124700000D03*
D23*
X148010000Y-124600000D03*
D25*
X146740000Y-124700000D03*
D18*
X145470000Y-125000000D03*
X144200000Y-125000000D03*
X142930000Y-125000000D03*
X141660000Y-125000000D03*
X140390000Y-125000000D03*
X139120000Y-125000000D03*
X137850000Y-125000000D03*
X136580000Y-125000000D03*
X135310000Y-125000000D03*
X134040000Y-125000000D03*
D26*
X132770000Y-124600000D03*
D27*
X131500000Y-124600000D03*
D18*
X130230000Y-125000000D03*
X128960000Y-125000000D03*
X127690000Y-125000000D03*
D19*
X126420000Y-125000000D03*
X125150000Y-125000000D03*
D18*
X123880000Y-125000000D03*
X122610000Y-125000000D03*
X121340000Y-125000000D03*
X120070000Y-125000000D03*
X118800000Y-125000000D03*
X117530000Y-125000000D03*
X116260000Y-125000000D03*
X114990000Y-125000000D03*
X113720000Y-125000000D03*
X112450000Y-125000000D03*
X111180000Y-125000000D03*
X109910000Y-125000000D03*
X108640000Y-125000000D03*
X107370000Y-125000000D03*
X106100000Y-125000000D03*
X104830000Y-125000000D03*
X103560000Y-125000000D03*
X102290000Y-125000000D03*
X101020000Y-125000000D03*
X99750000Y-125000000D03*
X98480000Y-125000000D03*
X97210000Y-125000000D03*
D24*
X94000000Y-121590000D03*
X94000000Y-120320000D03*
X94000000Y-119050000D03*
X94000000Y-117780000D03*
X94000000Y-116510000D03*
X94000000Y-115240000D03*
X94000000Y-113970000D03*
X94000000Y-112700000D03*
X94000000Y-111430000D03*
X94000000Y-110160000D03*
X94000000Y-108890000D03*
X94000000Y-107620000D03*
X94000000Y-106350000D03*
X94000000Y-105080000D03*
X94000000Y-103810000D03*
X94000000Y-102540000D03*
X94000000Y-101270000D03*
X94000000Y-100000000D03*
X94000000Y-98730000D03*
X94000000Y-97460000D03*
X94000000Y-96190000D03*
X94000000Y-94920000D03*
X94000000Y-93650000D03*
X94000000Y-92380000D03*
X94000000Y-91110000D03*
X94000000Y-89840000D03*
X94000000Y-88570000D03*
X94000000Y-87300000D03*
X94000000Y-86030000D03*
X94000000Y-84760000D03*
X94000000Y-83490000D03*
X94000000Y-82220000D03*
X94000000Y-80950000D03*
X94000000Y-79680000D03*
X94000000Y-78410000D03*
D28*
X179000000Y-115000000D03*
X179000000Y-115850000D03*
X179000000Y-116700000D03*
X179000000Y-117550000D03*
X179000000Y-118400000D03*
X179000000Y-119250000D03*
X179000000Y-120100000D03*
X179000000Y-120950000D03*
X180350000Y-120950000D03*
X180350000Y-120100000D03*
X180350000Y-119250000D03*
X180350000Y-118400000D03*
X180350000Y-117550000D03*
X180350000Y-116700000D03*
X180350000Y-115850000D03*
X180350000Y-115000000D03*
D29*
X183360000Y-113650000D03*
D30*
X179980000Y-113650000D03*
D29*
X183360000Y-122300000D03*
D30*
X179980000Y-122300000D03*
D31*
X96320000Y-73000000D03*
X95680000Y-73000000D03*
D32*
X171500000Y-78280000D03*
X171500000Y-77640000D03*
D31*
X139420000Y-130900000D03*
X138780000Y-130900000D03*
D33*
X98400000Y-127280000D03*
X98400000Y-127920000D03*
X101000000Y-127280000D03*
X101000000Y-127920000D03*
D31*
X174420000Y-121400000D03*
X173780000Y-121400000D03*
D34*
X123485000Y-71500000D03*
X122515000Y-71500000D03*
D35*
X176769000Y-82900000D03*
X177069000Y-82560000D03*
X177069000Y-83240000D03*
D33*
X101900000Y-127280000D03*
X101900000Y-127920000D03*
D36*
X140390001Y-131000000D03*
X141409999Y-131000000D03*
D37*
X179679000Y-79300000D03*
X179679000Y-86500000D03*
D38*
X179119000Y-80150000D03*
X179119000Y-80650000D03*
X179119000Y-81150000D03*
X179119000Y-81650000D03*
X179119000Y-82150000D03*
X179119000Y-82650000D03*
X179119000Y-83150000D03*
X179119000Y-83650000D03*
X179119000Y-84150000D03*
X179119000Y-84650000D03*
X179119000Y-85150000D03*
X179119000Y-85650000D03*
D39*
X180329000Y-85700000D03*
X181029000Y-85300000D03*
X181029000Y-84500000D03*
X180329000Y-84100000D03*
X181029000Y-83700000D03*
X180329000Y-83300000D03*
X180329000Y-82500000D03*
X181029000Y-82100000D03*
X180329000Y-81700000D03*
X181029000Y-81300000D03*
X181029000Y-80500000D03*
X180329000Y-80100000D03*
D40*
X180919000Y-78770000D03*
X180919000Y-87030000D03*
D41*
X185319000Y-78410000D03*
X185319000Y-87390000D03*
D42*
X167000000Y-72000000D03*
D31*
X174440000Y-120400000D03*
X173800000Y-120400000D03*
D43*
X136400000Y-67300000D03*
D44*
X138940000Y-67300000D03*
X141480000Y-67300000D03*
X144020000Y-67300000D03*
X146560000Y-67300000D03*
X149100000Y-67300000D03*
X151640000Y-67300000D03*
X154180000Y-67300000D03*
D45*
X177540000Y-92205000D03*
D46*
X180590000Y-94285000D03*
X180590000Y-105715000D03*
D45*
X177540000Y-107795000D03*
D47*
X171700000Y-94285000D03*
X174240000Y-95555000D03*
X171700000Y-96825000D03*
X174240000Y-98095000D03*
X171700000Y-99365000D03*
X174240000Y-100635000D03*
X171700000Y-101905000D03*
X174240000Y-103175000D03*
X171700000Y-104445000D03*
X174240000Y-105715000D03*
X185160000Y-93215000D03*
X183130000Y-93215000D03*
X185160000Y-106785000D03*
X183130000Y-106785000D03*
D42*
X167900000Y-129000000D03*
D48*
X174470000Y-118828000D03*
X173200000Y-118828000D03*
X173200000Y-110700000D03*
X174470000Y-110700000D03*
D42*
X92480000Y-127820000D03*
D49*
X122680000Y-73000000D03*
X123320000Y-73000000D03*
D42*
X94000000Y-72000000D03*
D50*
X83000000Y-71000000D02*
G75*
G02*
X85000000Y-69000000I2000000J0D01*
G01*
X156000000Y-136000000D02*
X85000000Y-131000000D01*
X88707107Y-82292893D02*
G75*
G02*
X89000000Y-83000000I-707107J-707107D01*
G01*
X188000000Y-118000000D02*
X188000000Y-82000000D01*
X89000000Y-117000000D02*
G75*
G02*
X88707107Y-117707107I-1000000J0D01*
G01*
X182000000Y-64000000D02*
X188000000Y-82000000D01*
X182000000Y-64000000D02*
X156000000Y-64000000D01*
X89000000Y-83000000D02*
X89000000Y-117000000D01*
X83000000Y-122500000D02*
X83000000Y-129000000D01*
X188000000Y-118000000D02*
X182000000Y-136000000D01*
X83292893Y-78207107D02*
G75*
G02*
X83000000Y-77500000I707107J707107D01*
G01*
X88707107Y-82292893D02*
X83292893Y-78207107D01*
X156000000Y-64000000D02*
X85000000Y-69000000D01*
X88707107Y-117707107D02*
X83292893Y-121792893D01*
X83000000Y-77500000D02*
X83000000Y-71000000D01*
X83000000Y-122500000D02*
G75*
G02*
X83292893Y-121792893I1000000J0D01*
G01*
X85000000Y-131000000D02*
G75*
G02*
X83000000Y-129000000I0J2000000D01*
G01*
X156000000Y-136000000D02*
X182000000Y-136000000D01*
D51*
X179354000Y-86650000D02*
X179354000Y-86350000D01*
X180004000Y-86350000D02*
X180004000Y-86650000D01*
X179354000Y-86350000D02*
G75*
G02*
X179679000Y-86025000I325000J0D01*
G01*
X179679000Y-86025000D02*
G75*
G02*
X180004000Y-86350000I0J-325000D01*
G01*
X179679000Y-86975000D02*
G75*
G02*
X179354000Y-86650000I0J325000D01*
G01*
X180004000Y-86650000D02*
G75*
G02*
X179679000Y-86975000I-325000J0D01*
G01*
M02*
