G04 #@! TF.GenerationSoftware,KiCad,Pcbnew,8.0.1-8.0.1-1~ubuntu22.04.1*
G04 #@! TF.CreationDate,2024-03-31T08:55:46-05:00*
G04 #@! TF.ProjectId,controller,636f6e74-726f-46c6-9c65-722e6b696361,rev?*
G04 #@! TF.SameCoordinates,Original*
G04 #@! TF.FileFunction,Soldermask,Top*
G04 #@! TF.FilePolarity,Negative*
%FSLAX46Y46*%
G04 Gerber Fmt 4.6, Leading zero omitted, Abs format (unit mm)*
G04 Created by KiCad (PCBNEW 8.0.1-8.0.1-1~ubuntu22.04.1) date 2024-03-31 08:55:46*
%MOMM*%
%LPD*%
G01*
G04 APERTURE LIST*
G04 Aperture macros list*
%AMRoundRect*
0 Rectangle with rounded corners*
0 $1 Rounding radius*
0 $2 $3 $4 $5 $6 $7 $8 $9 X,Y pos of 4 corners*
0 Add a 4 corners polygon primitive as box body*
4,1,4,$2,$3,$4,$5,$6,$7,$8,$9,$2,$3,0*
0 Add four circle primitives for the rounded corners*
1,1,$1+$1,$2,$3*
1,1,$1+$1,$4,$5*
1,1,$1+$1,$6,$7*
1,1,$1+$1,$8,$9*
0 Add four rect primitives between the rounded corners*
20,1,$1+$1,$2,$3,$4,$5,0*
20,1,$1+$1,$4,$5,$6,$7,0*
20,1,$1+$1,$6,$7,$8,$9,0*
20,1,$1+$1,$8,$9,$2,$3,0*%
%AMHorizOval*
0 Thick line with rounded ends*
0 $1 width*
0 $2 $3 position (X,Y) of the first rounded end (center of the circle)*
0 $4 $5 position (X,Y) of the second rounded end (center of the circle)*
0 Add line between two ends*
20,1,$1,$2,$3,$4,$5,0*
0 Add two circle primitives to create the rounded ends*
1,1,$1,$2,$3*
1,1,$1,$4,$5*%
%AMRotRect*
0 Rectangle, with rotation*
0 The origin of the aperture is its center*
0 $1 length*
0 $2 width*
0 $3 Rotation angle, in degrees counterclockwise*
0 Add horizontal line*
21,1,$1,$2,0,0,$3*%
%AMFreePoly0*
4,1,6,0.375000,0.204290,0.375000,-0.325000,-0.375000,-0.325000,-0.375000,0.325000,0.254290,0.325000,0.375000,0.204290,0.375000,0.204290,$1*%
%AMFreePoly1*
4,1,6,0.375000,-0.325000,-0.375000,-0.325000,-0.375000,0.204290,-0.254290,0.325000,0.375000,0.325000,0.375000,-0.325000,0.375000,-0.325000,$1*%
%AMFreePoly2*
4,1,6,0.375000,-0.325000,-0.254290,-0.325000,-0.375000,-0.204290,-0.375000,0.325000,0.375000,0.325000,0.375000,-0.325000,0.375000,-0.325000,$1*%
%AMFreePoly3*
4,1,6,0.375000,-0.204290,0.254290,-0.325000,-0.375000,-0.325000,-0.375000,0.325000,0.375000,0.325000,0.375000,-0.204290,0.375000,-0.204290,$1*%
G04 Aperture macros list end*
%ADD10C,0.010000*%
%ADD11R,0.600000X1.250000*%
%ADD12R,1.200000X3.790000*%
%ADD13R,1.450000X1.400000*%
%ADD14R,1.000000X0.600000*%
%ADD15R,0.950000X0.850000*%
%ADD16RoundRect,0.062500X0.212132X-0.123744X-0.123744X0.212132X-0.212132X0.123744X0.123744X-0.212132X0*%
%ADD17RoundRect,0.062500X0.212132X0.123744X0.123744X0.212132X-0.212132X-0.123744X-0.123744X-0.212132X0*%
%ADD18RotRect,1.225000X1.225000X135.000000*%
%ADD19RoundRect,0.100000X-0.162635X0.021213X0.021213X-0.162635X0.162635X-0.021213X-0.021213X0.162635X0*%
%ADD20RoundRect,0.100000X0.021213X0.162635X-0.162635X-0.021213X-0.021213X-0.162635X0.162635X0.021213X0*%
%ADD21RoundRect,0.140000X0.140000X0.170000X-0.140000X0.170000X-0.140000X-0.170000X0.140000X-0.170000X0*%
%ADD22RoundRect,0.100000X0.130000X0.100000X-0.130000X0.100000X-0.130000X-0.100000X0.130000X-0.100000X0*%
%ADD23R,0.650000X0.400000*%
%ADD24RoundRect,0.100000X-0.130000X-0.100000X0.130000X-0.100000X0.130000X0.100000X-0.130000X0.100000X0*%
%ADD25RoundRect,0.100000X-0.100000X0.130000X-0.100000X-0.130000X0.100000X-0.130000X0.100000X0.130000X0*%
%ADD26RotRect,0.254000X0.812800X135.000000*%
%ADD27RotRect,0.254000X0.812800X45.000000*%
%ADD28RotRect,1.501800X1.501800X45.000000*%
%ADD29RoundRect,0.100000X0.162635X-0.021213X-0.021213X0.162635X-0.162635X0.021213X0.021213X-0.162635X0*%
%ADD30RoundRect,0.100000X-0.021213X-0.162635X0.162635X0.021213X0.021213X0.162635X-0.162635X-0.021213X0*%
%ADD31RoundRect,0.135000X0.226274X0.035355X0.035355X0.226274X-0.226274X-0.035355X-0.035355X-0.226274X0*%
%ADD32RoundRect,0.100000X0.100000X-0.130000X0.100000X0.130000X-0.100000X0.130000X-0.100000X-0.130000X0*%
%ADD33RotRect,0.750000X0.700000X45.000000*%
%ADD34RoundRect,0.140000X-0.170000X0.140000X-0.170000X-0.140000X0.170000X-0.140000X0.170000X0.140000X0*%
%ADD35R,2.500000X2.300000*%
%ADD36RoundRect,0.150000X-0.256326X-0.468458X0.468458X0.256326X0.256326X0.468458X-0.468458X-0.256326X0*%
%ADD37RoundRect,0.140000X-0.219203X-0.021213X-0.021213X-0.219203X0.219203X0.021213X0.021213X0.219203X0*%
%ADD38C,1.000000*%
%ADD39C,3.700000*%
%ADD40RoundRect,0.140000X-0.140000X-0.170000X0.140000X-0.170000X0.140000X0.170000X-0.140000X0.170000X0*%
%ADD41R,0.609600X2.006600*%
%ADD42R,0.711200X4.191000*%
%ADD43R,3.505200X1.778000*%
%ADD44R,0.400000X0.650000*%
%ADD45RoundRect,0.150000X0.150000X-0.450000X0.150000X0.450000X-0.150000X0.450000X-0.150000X-0.450000X0*%
%ADD46R,2.000000X0.610000*%
%ADD47R,3.600000X2.680000*%
%ADD48R,0.200000X0.200000*%
%ADD49RoundRect,0.250000X0.900000X-1.000000X0.900000X1.000000X-0.900000X1.000000X-0.900000X-1.000000X0*%
%ADD50R,1.778000X3.505200*%
%ADD51HorizOval,0.200000X-0.141421X-0.141421X0.141421X0.141421X0*%
%ADD52HorizOval,0.200000X-0.141421X0.141421X0.141421X-0.141421X0*%
%ADD53C,0.625000*%
%ADD54RotRect,5.000000X5.000000X225.000000*%
%ADD55RotRect,0.200000X0.200000X315.000000*%
%ADD56R,0.800000X1.100000*%
%ADD57R,1.200000X2.700000*%
%ADD58FreePoly0,225.000000*%
%ADD59FreePoly1,225.000000*%
%ADD60FreePoly2,225.000000*%
%ADD61FreePoly3,225.000000*%
%ADD62RoundRect,0.762000X-0.000010X-0.000010X0.000010X-0.000010X0.000010X0.000010X-0.000010X0.000010X0*%
%ADD63RoundRect,0.762000X-1.238000X-0.000010X1.238000X-0.000010X1.238000X0.000010X-1.238000X0.000010X0*%
%ADD64RoundRect,0.381000X-0.381000X-0.381000X0.381000X-0.381000X0.381000X0.381000X-0.381000X0.381000X0*%
%ADD65RoundRect,0.381000X-1.119000X-0.381000X1.119000X-0.381000X1.119000X0.381000X-1.119000X0.381000X0*%
%ADD66RoundRect,0.228600X-1.271400X-0.533400X1.271400X-0.533400X1.271400X0.533400X-1.271400X0.533400X0*%
%ADD67RoundRect,0.150000X-0.512500X-0.150000X0.512500X-0.150000X0.512500X0.150000X-0.512500X0.150000X0*%
%ADD68RoundRect,0.140000X0.170000X-0.140000X0.170000X0.140000X-0.170000X0.140000X-0.170000X-0.140000X0*%
%ADD69RoundRect,0.150000X0.150000X-0.587500X0.150000X0.587500X-0.150000X0.587500X-0.150000X-0.587500X0*%
%ADD70C,0.700000*%
%ADD71O,1.700000X0.900000*%
%ADD72O,2.400000X0.900000*%
%ADD73C,0.650000*%
%ADD74C,0.640000*%
%ADD75O,1.440000X0.840000*%
%ADD76O,1.604000X1.004000*%
%ADD77R,1.700000X1.700000*%
%ADD78O,1.700000X1.700000*%
%ADD79C,1.900000*%
%ADD80C,3.500000*%
%ADD81C,1.300000*%
G04 #@! TA.AperFunction,Profile*
%ADD82C,0.254000*%
G04 #@! TD*
G04 #@! TA.AperFunction,Profile*
%ADD83C,0.010000*%
G04 #@! TD*
G04 APERTURE END LIST*
D10*
X98300000Y-110900000D02*
X97500000Y-110900000D01*
X97500000Y-110600000D01*
X98300000Y-110600000D01*
X98300000Y-110900000D01*
G36*
X98300000Y-110900000D02*
G01*
X97500000Y-110900000D01*
X97500000Y-110600000D01*
X98300000Y-110600000D01*
X98300000Y-110900000D01*
G37*
X98300000Y-111300000D02*
X97500000Y-111300000D01*
X97500000Y-111000000D01*
X98300000Y-111000000D01*
X98300000Y-111300000D01*
G36*
X98300000Y-111300000D02*
G01*
X97500000Y-111300000D01*
X97500000Y-111000000D01*
X98300000Y-111000000D01*
X98300000Y-111300000D01*
G37*
X98300000Y-111700000D02*
X97500000Y-111700000D01*
X97500000Y-111400000D01*
X98300000Y-111400000D01*
X98300000Y-111700000D01*
G36*
X98300000Y-111700000D02*
G01*
X97500000Y-111700000D01*
X97500000Y-111400000D01*
X98300000Y-111400000D01*
X98300000Y-111700000D01*
G37*
X98300000Y-112100000D02*
X97500000Y-112100000D01*
X97500000Y-111800000D01*
X98300000Y-111800000D01*
X98300000Y-112100000D01*
G36*
X98300000Y-112100000D02*
G01*
X97500000Y-112100000D01*
X97500000Y-111800000D01*
X98300000Y-111800000D01*
X98300000Y-112100000D01*
G37*
X99200000Y-110900000D02*
X98400000Y-110900000D01*
X98400000Y-110600000D01*
X99200000Y-110600000D01*
X99200000Y-110900000D01*
G36*
X99200000Y-110900000D02*
G01*
X98400000Y-110900000D01*
X98400000Y-110600000D01*
X99200000Y-110600000D01*
X99200000Y-110900000D01*
G37*
X99200000Y-111300000D02*
X98400000Y-111300000D01*
X98400000Y-111000000D01*
X99200000Y-111000000D01*
X99200000Y-111300000D01*
G36*
X99200000Y-111300000D02*
G01*
X98400000Y-111300000D01*
X98400000Y-111000000D01*
X99200000Y-111000000D01*
X99200000Y-111300000D01*
G37*
X99200000Y-111700000D02*
X98400000Y-111700000D01*
X98400000Y-111400000D01*
X99200000Y-111400000D01*
X99200000Y-111700000D01*
G36*
X99200000Y-111700000D02*
G01*
X98400000Y-111700000D01*
X98400000Y-111400000D01*
X99200000Y-111400000D01*
X99200000Y-111700000D01*
G37*
X99200000Y-112100000D02*
X98400000Y-112100000D01*
X98400000Y-111800000D01*
X99200000Y-111800000D01*
X99200000Y-112100000D01*
G36*
X99200000Y-112100000D02*
G01*
X98400000Y-112100000D01*
X98400000Y-111800000D01*
X99200000Y-111800000D01*
X99200000Y-112100000D01*
G37*
X154431513Y-104122619D02*
X153865827Y-104688305D01*
X153653695Y-104476173D01*
X154219381Y-103910487D01*
X154431513Y-104122619D01*
G36*
X154431513Y-104122619D02*
G01*
X153865827Y-104688305D01*
X153653695Y-104476173D01*
X154219381Y-103910487D01*
X154431513Y-104122619D01*
G37*
X154714355Y-104405462D02*
X154148670Y-104971147D01*
X153936538Y-104759015D01*
X154502223Y-104193330D01*
X154714355Y-104405462D01*
G36*
X154714355Y-104405462D02*
G01*
X154148670Y-104971147D01*
X153936538Y-104759015D01*
X154502223Y-104193330D01*
X154714355Y-104405462D01*
G37*
X154997198Y-104688305D02*
X154431513Y-105253990D01*
X154219381Y-105041858D01*
X154785066Y-104476173D01*
X154997198Y-104688305D01*
G36*
X154997198Y-104688305D02*
G01*
X154431513Y-105253990D01*
X154219381Y-105041858D01*
X154785066Y-104476173D01*
X154997198Y-104688305D01*
G37*
X155067909Y-103486223D02*
X154502223Y-104051909D01*
X154290091Y-103839777D01*
X154855777Y-103274091D01*
X155067909Y-103486223D01*
G36*
X155067909Y-103486223D02*
G01*
X154502223Y-104051909D01*
X154290091Y-103839777D01*
X154855777Y-103274091D01*
X155067909Y-103486223D01*
G37*
X155280041Y-104971147D02*
X154714355Y-105536833D01*
X154502223Y-105324701D01*
X155067909Y-104759015D01*
X155280041Y-104971147D01*
G36*
X155280041Y-104971147D02*
G01*
X154714355Y-105536833D01*
X154502223Y-105324701D01*
X155067909Y-104759015D01*
X155280041Y-104971147D01*
G37*
X155350751Y-103769066D02*
X154785066Y-104334751D01*
X154572934Y-104122619D01*
X155138619Y-103556934D01*
X155350751Y-103769066D01*
G36*
X155350751Y-103769066D02*
G01*
X154785066Y-104334751D01*
X154572934Y-104122619D01*
X155138619Y-103556934D01*
X155350751Y-103769066D01*
G37*
X155633594Y-104051909D02*
X155067909Y-104617594D01*
X154855777Y-104405462D01*
X155421462Y-103839777D01*
X155633594Y-104051909D01*
G36*
X155633594Y-104051909D02*
G01*
X155067909Y-104617594D01*
X154855777Y-104405462D01*
X155421462Y-103839777D01*
X155633594Y-104051909D01*
G37*
X155916437Y-104334751D02*
X155350751Y-104900437D01*
X155138619Y-104688305D01*
X155704305Y-104122619D01*
X155916437Y-104334751D01*
G36*
X155916437Y-104334751D02*
G01*
X155350751Y-104900437D01*
X155138619Y-104688305D01*
X155704305Y-104122619D01*
X155916437Y-104334751D01*
G37*
X179701000Y-85926000D02*
X179723000Y-85927000D01*
X179745000Y-85930000D01*
X179767000Y-85934000D01*
X179789000Y-85939000D01*
X179810000Y-85946000D01*
X179831000Y-85953000D01*
X179852000Y-85962000D01*
X179872000Y-85971000D01*
X179891000Y-85982000D01*
X179910000Y-85994000D01*
X179929000Y-86006000D01*
X179946000Y-86020000D01*
X179963000Y-86034000D01*
X179980000Y-86049000D01*
X179995000Y-86066000D01*
X180009000Y-86083000D01*
X180023000Y-86100000D01*
X180035000Y-86119000D01*
X180047000Y-86137000D01*
X180058000Y-86157000D01*
X180067000Y-86177000D01*
X180076000Y-86198000D01*
X180083000Y-86219000D01*
X180090000Y-86240000D01*
X180095000Y-86262000D01*
X180099000Y-86284000D01*
X180102000Y-86306000D01*
X180103000Y-86328000D01*
X180104000Y-86350000D01*
X180104000Y-86650000D01*
X180103000Y-86672000D01*
X180102000Y-86694000D01*
X180099000Y-86716000D01*
X180095000Y-86738000D01*
X180090000Y-86760000D01*
X180083000Y-86781000D01*
X180076000Y-86802000D01*
X180067000Y-86823000D01*
X180058000Y-86843000D01*
X180047000Y-86862000D01*
X180035000Y-86881000D01*
X180023000Y-86900000D01*
X180009000Y-86917000D01*
X179995000Y-86934000D01*
X179980000Y-86951000D01*
X179963000Y-86966000D01*
X179946000Y-86980000D01*
X179929000Y-86994000D01*
X179910000Y-87006000D01*
X179891000Y-87018000D01*
X179872000Y-87029000D01*
X179852000Y-87038000D01*
X179831000Y-87047000D01*
X179810000Y-87054000D01*
X179789000Y-87061000D01*
X179767000Y-87066000D01*
X179745000Y-87070000D01*
X179723000Y-87073000D01*
X179701000Y-87074000D01*
X179679000Y-87075000D01*
X179657000Y-87074000D01*
X179635000Y-87073000D01*
X179613000Y-87070000D01*
X179591000Y-87066000D01*
X179569000Y-87061000D01*
X179548000Y-87054000D01*
X179527000Y-87047000D01*
X179506000Y-87038000D01*
X179486000Y-87029000D01*
X179466000Y-87018000D01*
X179448000Y-87006000D01*
X179429000Y-86994000D01*
X179412000Y-86980000D01*
X179395000Y-86966000D01*
X179378000Y-86951000D01*
X179363000Y-86934000D01*
X179349000Y-86917000D01*
X179335000Y-86900000D01*
X179323000Y-86881000D01*
X179311000Y-86862000D01*
X179300000Y-86843000D01*
X179291000Y-86823000D01*
X179282000Y-86802000D01*
X179275000Y-86781000D01*
X179268000Y-86760000D01*
X179263000Y-86738000D01*
X179259000Y-86716000D01*
X179256000Y-86694000D01*
X179255000Y-86672000D01*
X179254000Y-86650000D01*
X179254000Y-86350000D01*
X179255000Y-86328000D01*
X179256000Y-86306000D01*
X179259000Y-86284000D01*
X179263000Y-86262000D01*
X179268000Y-86240000D01*
X179275000Y-86219000D01*
X179282000Y-86198000D01*
X179291000Y-86177000D01*
X179300000Y-86157000D01*
X179311000Y-86137000D01*
X179323000Y-86119000D01*
X179335000Y-86100000D01*
X179349000Y-86083000D01*
X179363000Y-86066000D01*
X179378000Y-86049000D01*
X179395000Y-86034000D01*
X179412000Y-86020000D01*
X179429000Y-86006000D01*
X179448000Y-85994000D01*
X179466000Y-85982000D01*
X179486000Y-85971000D01*
X179506000Y-85962000D01*
X179527000Y-85953000D01*
X179548000Y-85946000D01*
X179569000Y-85939000D01*
X179591000Y-85934000D01*
X179613000Y-85930000D01*
X179635000Y-85927000D01*
X179657000Y-85926000D01*
X179679000Y-85925000D01*
X179701000Y-85926000D01*
G36*
X179701000Y-85926000D02*
G01*
X179723000Y-85927000D01*
X179745000Y-85930000D01*
X179767000Y-85934000D01*
X179789000Y-85939000D01*
X179810000Y-85946000D01*
X179831000Y-85953000D01*
X179852000Y-85962000D01*
X179872000Y-85971000D01*
X179891000Y-85982000D01*
X179910000Y-85994000D01*
X179929000Y-86006000D01*
X179946000Y-86020000D01*
X179963000Y-86034000D01*
X179980000Y-86049000D01*
X179995000Y-86066000D01*
X180009000Y-86083000D01*
X180023000Y-86100000D01*
X180035000Y-86119000D01*
X180047000Y-86137000D01*
X180058000Y-86157000D01*
X180067000Y-86177000D01*
X180076000Y-86198000D01*
X180083000Y-86219000D01*
X180090000Y-86240000D01*
X180095000Y-86262000D01*
X180099000Y-86284000D01*
X180102000Y-86306000D01*
X180103000Y-86328000D01*
X180104000Y-86350000D01*
X180104000Y-86650000D01*
X180103000Y-86672000D01*
X180102000Y-86694000D01*
X180099000Y-86716000D01*
X180095000Y-86738000D01*
X180090000Y-86760000D01*
X180083000Y-86781000D01*
X180076000Y-86802000D01*
X180067000Y-86823000D01*
X180058000Y-86843000D01*
X180047000Y-86862000D01*
X180035000Y-86881000D01*
X180023000Y-86900000D01*
X180009000Y-86917000D01*
X179995000Y-86934000D01*
X179980000Y-86951000D01*
X179963000Y-86966000D01*
X179946000Y-86980000D01*
X179929000Y-86994000D01*
X179910000Y-87006000D01*
X179891000Y-87018000D01*
X179872000Y-87029000D01*
X179852000Y-87038000D01*
X179831000Y-87047000D01*
X179810000Y-87054000D01*
X179789000Y-87061000D01*
X179767000Y-87066000D01*
X179745000Y-87070000D01*
X179723000Y-87073000D01*
X179701000Y-87074000D01*
X179679000Y-87075000D01*
X179657000Y-87074000D01*
X179635000Y-87073000D01*
X179613000Y-87070000D01*
X179591000Y-87066000D01*
X179569000Y-87061000D01*
X179548000Y-87054000D01*
X179527000Y-87047000D01*
X179506000Y-87038000D01*
X179486000Y-87029000D01*
X179466000Y-87018000D01*
X179448000Y-87006000D01*
X179429000Y-86994000D01*
X179412000Y-86980000D01*
X179395000Y-86966000D01*
X179378000Y-86951000D01*
X179363000Y-86934000D01*
X179349000Y-86917000D01*
X179335000Y-86900000D01*
X179323000Y-86881000D01*
X179311000Y-86862000D01*
X179300000Y-86843000D01*
X179291000Y-86823000D01*
X179282000Y-86802000D01*
X179275000Y-86781000D01*
X179268000Y-86760000D01*
X179263000Y-86738000D01*
X179259000Y-86716000D01*
X179256000Y-86694000D01*
X179255000Y-86672000D01*
X179254000Y-86650000D01*
X179254000Y-86350000D01*
X179255000Y-86328000D01*
X179256000Y-86306000D01*
X179259000Y-86284000D01*
X179263000Y-86262000D01*
X179268000Y-86240000D01*
X179275000Y-86219000D01*
X179282000Y-86198000D01*
X179291000Y-86177000D01*
X179300000Y-86157000D01*
X179311000Y-86137000D01*
X179323000Y-86119000D01*
X179335000Y-86100000D01*
X179349000Y-86083000D01*
X179363000Y-86066000D01*
X179378000Y-86049000D01*
X179395000Y-86034000D01*
X179412000Y-86020000D01*
X179429000Y-86006000D01*
X179448000Y-85994000D01*
X179466000Y-85982000D01*
X179486000Y-85971000D01*
X179506000Y-85962000D01*
X179527000Y-85953000D01*
X179548000Y-85946000D01*
X179569000Y-85939000D01*
X179591000Y-85934000D01*
X179613000Y-85930000D01*
X179635000Y-85927000D01*
X179657000Y-85926000D01*
X179679000Y-85925000D01*
X179701000Y-85926000D01*
G37*
D11*
X104680000Y-124185000D03*
X103580000Y-124185000D03*
X102480000Y-124185000D03*
X101380000Y-124185000D03*
X100280000Y-124185000D03*
X99180000Y-124185000D03*
X98080000Y-124185000D03*
X96980000Y-124185000D03*
D12*
X95830000Y-126665000D03*
D13*
X106305000Y-125910000D03*
D14*
X106530000Y-127160000D03*
D15*
X105605000Y-128135000D03*
D16*
X110279619Y-120547386D03*
X110633173Y-120193833D03*
X110986726Y-119840280D03*
X111340280Y-119486726D03*
X111693833Y-119133173D03*
X112047386Y-118779619D03*
D17*
X112047386Y-117860381D03*
X111693833Y-117506827D03*
X111340280Y-117153274D03*
X110986726Y-116799720D03*
X110633173Y-116446167D03*
X110279619Y-116092614D03*
D16*
X109360381Y-116092614D03*
X109006827Y-116446167D03*
X108653274Y-116799720D03*
X108299720Y-117153274D03*
X107946167Y-117506827D03*
X107592614Y-117860381D03*
D17*
X107592614Y-118779619D03*
X107946167Y-119133173D03*
X108299720Y-119486726D03*
X108653274Y-119840280D03*
X109006827Y-120193833D03*
X109360381Y-120547386D03*
D18*
X109820000Y-119186206D03*
X110686206Y-118320000D03*
X108953794Y-118320000D03*
X109820000Y-117453794D03*
D19*
X113163726Y-120443726D03*
X113616274Y-120896274D03*
D20*
X106686274Y-120933726D03*
X106233726Y-121386274D03*
D21*
X105580000Y-117250000D03*
X104620000Y-117250000D03*
D22*
X97310000Y-121560000D03*
X96670000Y-121560000D03*
D23*
X112130000Y-125540000D03*
X112130000Y-126190000D03*
X112130000Y-126840000D03*
X114030000Y-126840000D03*
X114030000Y-125540000D03*
D24*
X109480000Y-122500000D03*
X110120000Y-122500000D03*
D25*
X110240000Y-125960000D03*
X110240000Y-126600000D03*
D26*
X137309575Y-112675954D03*
X137668785Y-113035164D03*
X138027995Y-113394374D03*
X138387205Y-113753584D03*
X138746416Y-114112795D03*
X139105626Y-114472005D03*
X139464836Y-114831215D03*
X139824046Y-115190425D03*
D27*
X140775954Y-115190425D03*
X141135164Y-114831215D03*
X141494374Y-114472005D03*
X141853584Y-114112795D03*
X142212795Y-113753584D03*
X142572005Y-113394374D03*
X142931215Y-113035164D03*
X143290425Y-112675954D03*
D26*
X143290425Y-111724046D03*
X142931215Y-111364836D03*
X142572005Y-111005626D03*
X142212795Y-110646416D03*
X141853584Y-110287205D03*
X141494374Y-109927995D03*
X141135164Y-109568785D03*
X140775954Y-109209575D03*
D27*
X139824046Y-109209575D03*
X139464836Y-109568785D03*
X139105626Y-109927995D03*
X138746416Y-110287205D03*
X138387205Y-110646416D03*
X138027995Y-111005626D03*
X137668785Y-111364836D03*
X137309575Y-111724046D03*
D28*
X139096646Y-112200000D03*
X140300000Y-113403354D03*
X140300000Y-110996646D03*
X141503354Y-112200000D03*
D20*
X140366274Y-116813726D03*
X139913726Y-117266274D03*
X141506274Y-106563726D03*
X141053726Y-107016274D03*
D29*
X136906274Y-109346274D03*
X136453726Y-108893726D03*
X136126274Y-110126274D03*
X135673726Y-109673726D03*
D30*
X142703726Y-108686274D03*
X143156274Y-108233726D03*
X143243726Y-109216274D03*
X143696274Y-108763726D03*
D20*
X136976274Y-106693726D03*
X136523726Y-107146274D03*
D30*
X137710000Y-105980000D03*
X138162548Y-105527452D03*
D31*
X144320624Y-108100624D03*
X143599376Y-107379376D03*
D32*
X181860000Y-116340000D03*
X181860000Y-115700000D03*
D29*
X137666274Y-108576274D03*
X137213726Y-108123726D03*
D33*
X138676256Y-107820503D03*
X139630850Y-106865909D03*
X138923744Y-106158803D03*
X137969150Y-107113397D03*
D30*
X142133726Y-108106274D03*
X142586274Y-107653726D03*
D25*
X183922100Y-124860000D03*
X183922100Y-125500000D03*
D34*
X182932100Y-124810000D03*
X182932100Y-125770000D03*
D35*
X180272100Y-130680000D03*
X175972100Y-130680000D03*
D22*
X96205000Y-98552000D03*
X95565000Y-98552000D03*
X96205000Y-97790000D03*
X95565000Y-97790000D03*
D36*
X130496098Y-112160400D03*
X131167849Y-112832151D03*
X131839600Y-113503902D03*
X133448268Y-111895234D03*
X132776517Y-111223483D03*
X132104766Y-110551732D03*
D30*
X141593726Y-107566274D03*
X142046274Y-107113726D03*
X136673726Y-105926274D03*
X137126274Y-105473726D03*
D37*
X114180589Y-119360589D03*
X114859411Y-120039411D03*
D24*
X129070000Y-107090000D03*
X129710000Y-107090000D03*
D38*
X119109000Y-87132000D03*
D22*
X96205000Y-87503000D03*
X95565000Y-87503000D03*
D25*
X176300000Y-78950000D03*
X176300000Y-79590000D03*
D30*
X157788726Y-80694274D03*
X158241274Y-80241726D03*
D39*
X88000000Y-125000000D03*
D40*
X155270000Y-95180000D03*
X156230000Y-95180000D03*
D22*
X96205000Y-94996000D03*
X95565000Y-94996000D03*
D41*
X113495001Y-75329000D03*
X112495001Y-75329000D03*
X111495000Y-75329000D03*
X110495002Y-75329000D03*
X109495002Y-75329000D03*
X108495001Y-75329000D03*
X107495001Y-75329000D03*
X106495003Y-75329000D03*
X105495002Y-75329000D03*
X104495001Y-75329000D03*
X103495001Y-75329000D03*
X102495000Y-75329000D03*
X101495002Y-75329000D03*
X100495002Y-75329000D03*
X99495001Y-75329000D03*
X98495001Y-75329000D03*
D42*
X97498701Y-73220800D03*
X114491301Y-73220800D03*
D40*
X159560000Y-94500000D03*
X160520000Y-94500000D03*
D22*
X170120000Y-132550000D03*
X169480000Y-132550000D03*
D43*
X171830000Y-74734100D03*
X171830000Y-69501700D03*
D22*
X96205000Y-92075000D03*
X95565000Y-92075000D03*
D19*
X164333726Y-86623726D03*
X164786274Y-87076274D03*
D38*
X152820000Y-131230000D03*
D22*
X180520000Y-110300000D03*
X179880000Y-110300000D03*
D40*
X145420000Y-82280000D03*
X146380000Y-82280000D03*
D21*
X154910000Y-93890000D03*
X153950000Y-93890000D03*
D44*
X171700000Y-133000000D03*
X172350000Y-133000000D03*
X173000000Y-133000000D03*
X173000000Y-131100000D03*
X172350000Y-131100000D03*
X171700000Y-131100000D03*
D45*
X176750000Y-99137500D03*
X177700000Y-99137500D03*
X178650000Y-99137500D03*
X178650000Y-96862500D03*
X177700000Y-96862500D03*
X176750000Y-96862500D03*
D38*
X160000000Y-100000000D03*
D22*
X96205000Y-85725000D03*
X95565000Y-85725000D03*
D46*
X127000000Y-93000000D03*
X127000000Y-94000000D03*
X127000000Y-95000000D03*
X127000000Y-96000000D03*
X127000000Y-97000000D03*
X127000000Y-98000000D03*
X127000000Y-99000000D03*
X127000000Y-100000000D03*
X127000000Y-101000000D03*
X127000000Y-102000000D03*
X127000000Y-103000000D03*
X127000000Y-104000000D03*
X127000000Y-105000000D03*
X127000000Y-106000000D03*
X127000000Y-107000000D03*
D47*
X124200000Y-90010000D03*
X124200000Y-109990000D03*
D40*
X155270000Y-96180000D03*
X156230000Y-96180000D03*
D38*
X155000000Y-72000000D03*
D39*
X160000000Y-131000000D03*
X88000000Y-75000000D03*
D48*
X174809000Y-82673000D03*
X175149000Y-82373000D03*
X174469000Y-82373000D03*
D49*
X176320000Y-74377500D03*
X176320000Y-70077500D03*
D39*
X160000000Y-69000000D03*
D24*
X161832000Y-82666000D03*
X162472000Y-82666000D03*
D22*
X96205000Y-91313000D03*
X95565000Y-91313000D03*
D25*
X97028000Y-87564000D03*
X97028000Y-88204000D03*
D20*
X135781274Y-113098726D03*
X135328726Y-113551274D03*
D22*
X96205000Y-84963000D03*
X95565000Y-84963000D03*
X96205000Y-88265000D03*
X95565000Y-88265000D03*
D38*
X120000000Y-73000000D03*
D50*
X175675900Y-126200000D03*
X180908300Y-126200000D03*
D25*
X97025000Y-85024000D03*
X97025000Y-85664000D03*
D19*
X160327452Y-89887452D03*
X160780000Y-90340000D03*
D51*
X161264978Y-85787021D03*
X160982135Y-85504179D03*
X160699293Y-85221336D03*
X160416450Y-84938493D03*
X160133607Y-84655650D03*
X159850765Y-84372808D03*
X159567922Y-84089965D03*
X159285079Y-83807122D03*
X159002236Y-83524280D03*
X158719394Y-83241437D03*
X158436551Y-82958594D03*
X158153708Y-82675751D03*
X157870866Y-82392909D03*
X157588023Y-82110066D03*
X157305180Y-81827223D03*
X157022337Y-81544381D03*
X156739495Y-81261538D03*
D52*
X155749545Y-81261538D03*
X155466703Y-81544381D03*
X155183860Y-81827223D03*
X154901017Y-82110066D03*
X154618174Y-82392909D03*
X154335332Y-82675751D03*
X154052489Y-82958594D03*
X153769646Y-83241437D03*
X153486804Y-83524280D03*
X153203961Y-83807122D03*
X152921118Y-84089965D03*
X152638275Y-84372808D03*
X152355433Y-84655650D03*
X152072590Y-84938493D03*
X151789747Y-85221336D03*
X151506905Y-85504179D03*
X151224062Y-85787021D03*
D51*
X151224062Y-86776971D03*
X151506905Y-87059813D03*
X151789747Y-87342656D03*
X152072590Y-87625499D03*
X152355433Y-87908342D03*
X152638275Y-88191184D03*
X152921118Y-88474027D03*
X153203961Y-88756870D03*
X153486804Y-89039712D03*
X153769646Y-89322555D03*
X154052489Y-89605398D03*
X154335332Y-89888241D03*
X154618174Y-90171083D03*
X154901017Y-90453926D03*
X155183860Y-90736769D03*
X155466703Y-91019611D03*
X155749545Y-91302454D03*
D52*
X156739495Y-91302454D03*
X157022337Y-91019611D03*
X157305180Y-90736769D03*
X157588023Y-90453926D03*
X157870866Y-90171083D03*
X158153708Y-89888241D03*
X158436551Y-89605398D03*
X158719394Y-89322555D03*
X159002236Y-89039712D03*
X159285079Y-88756870D03*
X159567922Y-88474027D03*
X159850765Y-88191184D03*
X160133607Y-87908342D03*
X160416450Y-87625499D03*
X160699293Y-87342656D03*
X160982135Y-87059813D03*
X161264978Y-86776971D03*
D53*
X158012287Y-86281996D03*
X156244520Y-84514229D03*
X157128403Y-85398113D03*
X157128403Y-87165879D03*
X156244520Y-86281996D03*
D54*
X156244520Y-86281996D03*
D53*
X155360637Y-85398113D03*
X155360637Y-87165879D03*
X156244520Y-88049763D03*
X154476753Y-86281996D03*
D55*
X176648000Y-81538000D03*
X176195452Y-81509716D03*
X176676284Y-81990548D03*
D56*
X134285000Y-128750000D03*
X135555000Y-128750000D03*
X136825000Y-128750000D03*
X138095000Y-128750000D03*
X139365000Y-128750000D03*
X140635000Y-128750000D03*
X141905000Y-128750000D03*
X143175000Y-128750000D03*
X144445000Y-128750000D03*
X145715000Y-128750000D03*
X134285000Y-123250000D03*
X135555000Y-123250000D03*
X136825000Y-123250000D03*
X138095000Y-123250000D03*
X139365000Y-123250000D03*
X140635000Y-123250000D03*
X141905000Y-123250000D03*
X143175000Y-123250000D03*
X144445000Y-123250000D03*
X145715000Y-123250000D03*
D57*
X148210000Y-128450000D03*
X148210000Y-123550000D03*
X131790000Y-128450000D03*
X131790000Y-123550000D03*
D58*
X163386066Y-87238262D03*
D59*
X162431472Y-88192856D03*
D60*
X163173934Y-88935318D03*
D61*
X164128528Y-87980724D03*
D40*
X145420000Y-81080000D03*
X146380000Y-81080000D03*
D48*
X181812000Y-118011000D03*
X181512000Y-117671000D03*
X181512000Y-118351000D03*
D19*
X161503726Y-88773726D03*
X161956274Y-89226274D03*
D22*
X170120000Y-131500000D03*
X169480000Y-131500000D03*
D62*
X90500000Y-86500000D03*
D63*
X90500000Y-86500000D03*
D64*
X90500000Y-89040000D03*
D65*
X90500000Y-89040000D03*
D64*
X90500000Y-91580000D03*
D66*
X90500000Y-91580000D03*
D64*
X90500000Y-94120000D03*
D66*
X90500000Y-94120000D03*
D64*
X90500000Y-96660000D03*
D66*
X90500000Y-96660000D03*
D64*
X90500000Y-99200000D03*
D66*
X90500000Y-99200000D03*
D64*
X90500000Y-101740000D03*
D66*
X90500000Y-101740000D03*
D64*
X90500000Y-104280000D03*
D66*
X90500000Y-104280000D03*
D64*
X90500000Y-106820000D03*
D66*
X90500000Y-106820000D03*
D64*
X90500000Y-109360000D03*
D66*
X90500000Y-109360000D03*
D64*
X90500000Y-111900000D03*
D66*
X90500000Y-111900000D03*
D64*
X90500000Y-114440000D03*
D66*
X90500000Y-114440000D03*
D19*
X160867452Y-89347452D03*
X161320000Y-89800000D03*
D32*
X180230000Y-75420000D03*
X180230000Y-74780000D03*
D30*
X164023726Y-89586274D03*
X164476274Y-89133726D03*
D67*
X172800000Y-111500000D03*
X172800000Y-112450000D03*
X172800000Y-113400000D03*
X175075000Y-113400000D03*
X175075000Y-112450000D03*
X175075000Y-111500000D03*
D56*
X134285000Y-76750000D03*
X135555000Y-76750000D03*
X136825000Y-76750000D03*
X138095000Y-76750000D03*
X139365000Y-76750000D03*
X140635000Y-76750000D03*
X141905000Y-76750000D03*
X143175000Y-76750000D03*
X144445000Y-76750000D03*
X145715000Y-76750000D03*
X134285000Y-71250000D03*
X135555000Y-71250000D03*
X136825000Y-71250000D03*
X138095000Y-71250000D03*
X139365000Y-71250000D03*
X140635000Y-71250000D03*
X141905000Y-71250000D03*
X143175000Y-71250000D03*
X144445000Y-71250000D03*
X145715000Y-71250000D03*
D57*
X148210000Y-76450000D03*
X148210000Y-71550000D03*
X131790000Y-76450000D03*
X131790000Y-71550000D03*
D30*
X160276726Y-81507274D03*
X160729274Y-81054726D03*
D19*
X159787452Y-90427452D03*
X160240000Y-90880000D03*
D24*
X162126000Y-84581000D03*
X162766000Y-84581000D03*
D22*
X174690000Y-91870000D03*
X174050000Y-91870000D03*
X96205000Y-93726000D03*
X95565000Y-93726000D03*
D25*
X97028000Y-91374000D03*
X97028000Y-92014000D03*
D45*
X176750000Y-103300000D03*
X177700000Y-103300000D03*
X178650000Y-103300000D03*
X178650000Y-101025000D03*
X177700000Y-101025000D03*
X176750000Y-101025000D03*
D38*
X117000000Y-127000000D03*
D68*
X179360000Y-75370000D03*
X179360000Y-74410000D03*
D69*
X171150000Y-129337500D03*
X173050000Y-129337500D03*
X172100000Y-127462500D03*
D22*
X174720000Y-90500000D03*
X174080000Y-90500000D03*
D70*
X179000000Y-115000000D03*
X179000000Y-115850000D03*
X179000000Y-116700000D03*
X179000000Y-117550000D03*
X179000000Y-118400000D03*
X179000000Y-119250000D03*
X179000000Y-120100000D03*
X179000000Y-120950000D03*
X180350000Y-120950000D03*
X180350000Y-120100000D03*
X180350000Y-119250000D03*
X180350000Y-118400000D03*
X180350000Y-117550000D03*
X180350000Y-116700000D03*
X180350000Y-115850000D03*
X180350000Y-115000000D03*
D71*
X183360000Y-113650000D03*
D72*
X179980000Y-113650000D03*
D71*
X183360000Y-122300000D03*
D72*
X179980000Y-122300000D03*
D73*
X179679000Y-79300000D03*
X179679000Y-86500000D03*
D74*
X180329000Y-85700000D03*
X181029000Y-85300000D03*
X181029000Y-84500000D03*
X180329000Y-84100000D03*
X181029000Y-83700000D03*
X180329000Y-83300000D03*
X180329000Y-82500000D03*
X181029000Y-82100000D03*
X180329000Y-81700000D03*
X181029000Y-81300000D03*
X181029000Y-80500000D03*
X180329000Y-80100000D03*
D75*
X180919000Y-78770000D03*
X180919000Y-87030000D03*
D76*
X185319000Y-78410000D03*
X185319000Y-87390000D03*
D77*
X136400000Y-67300000D03*
D78*
X138940000Y-67300000D03*
X141480000Y-67300000D03*
X144020000Y-67300000D03*
X146560000Y-67300000D03*
X149100000Y-67300000D03*
X151640000Y-67300000D03*
X154180000Y-67300000D03*
D79*
X177540000Y-92205000D03*
D80*
X180590000Y-94285000D03*
X180590000Y-105715000D03*
D79*
X177540000Y-107795000D03*
D81*
X171700000Y-94285000D03*
X174240000Y-95555000D03*
X171700000Y-96825000D03*
X174240000Y-98095000D03*
X171700000Y-99365000D03*
X174240000Y-100635000D03*
X171700000Y-101905000D03*
X174240000Y-103175000D03*
X171700000Y-104445000D03*
X174240000Y-105715000D03*
X185160000Y-93215000D03*
X183130000Y-93215000D03*
X185160000Y-106785000D03*
X183130000Y-106785000D03*
D82*
X83000000Y-71000000D02*
G75*
G02*
X85000000Y-69000000I2000000J0D01*
G01*
X156000000Y-136000000D02*
X85000000Y-131000000D01*
X88707107Y-82292893D02*
G75*
G02*
X89000000Y-83000000I-707107J-707107D01*
G01*
X188000000Y-118000000D02*
X188000000Y-82000000D01*
X89000000Y-117000000D02*
G75*
G02*
X88707107Y-117707107I-1000000J0D01*
G01*
X182000000Y-64000000D02*
X188000000Y-82000000D01*
X182000000Y-64000000D02*
X156000000Y-64000000D01*
X89000000Y-83000000D02*
X89000000Y-117000000D01*
X83000000Y-122500000D02*
X83000000Y-129000000D01*
X188000000Y-118000000D02*
X182000000Y-136000000D01*
X83292893Y-78207107D02*
G75*
G02*
X83000000Y-77500000I707107J707107D01*
G01*
X88707107Y-82292893D02*
X83292893Y-78207107D01*
X156000000Y-64000000D02*
X85000000Y-69000000D01*
X88707107Y-117707107D02*
X83292893Y-121792893D01*
X83000000Y-77500000D02*
X83000000Y-71000000D01*
X83000000Y-122500000D02*
G75*
G02*
X83292893Y-121792893I1000000J0D01*
G01*
X85000000Y-131000000D02*
G75*
G02*
X83000000Y-129000000I0J2000000D01*
G01*
X156000000Y-136000000D02*
X182000000Y-136000000D01*
D83*
X179354000Y-86650000D02*
X179354000Y-86350000D01*
X180004000Y-86350000D02*
X180004000Y-86650000D01*
X179354000Y-86350000D02*
G75*
G02*
X179679000Y-86025000I325000J0D01*
G01*
X179679000Y-86025000D02*
G75*
G02*
X180004000Y-86350000I0J-325000D01*
G01*
X179679000Y-86975000D02*
G75*
G02*
X179354000Y-86650000I0J325000D01*
G01*
X180004000Y-86650000D02*
G75*
G02*
X179679000Y-86975000I-325000J0D01*
G01*
M02*
