G04 #@! TF.GenerationSoftware,KiCad,Pcbnew,8.0.1-8.0.1-1~ubuntu22.04.1*
G04 #@! TF.CreationDate,2024-03-31T08:55:46-05:00*
G04 #@! TF.ProjectId,controller,636f6e74-726f-46c6-9c65-722e6b696361,rev?*
G04 #@! TF.SameCoordinates,Original*
G04 #@! TF.FileFunction,Paste,Top*
G04 #@! TF.FilePolarity,Positive*
%FSLAX46Y46*%
G04 Gerber Fmt 4.6, Leading zero omitted, Abs format (unit mm)*
G04 Created by KiCad (PCBNEW 8.0.1-8.0.1-1~ubuntu22.04.1) date 2024-03-31 08:55:46*
%MOMM*%
%LPD*%
G01*
G04 APERTURE LIST*
G04 Aperture macros list*
%AMRoundRect*
0 Rectangle with rounded corners*
0 $1 Rounding radius*
0 $2 $3 $4 $5 $6 $7 $8 $9 X,Y pos of 4 corners*
0 Add a 4 corners polygon primitive as box body*
4,1,4,$2,$3,$4,$5,$6,$7,$8,$9,$2,$3,0*
0 Add four circle primitives for the rounded corners*
1,1,$1+$1,$2,$3*
1,1,$1+$1,$4,$5*
1,1,$1+$1,$6,$7*
1,1,$1+$1,$8,$9*
0 Add four rect primitives between the rounded corners*
20,1,$1+$1,$2,$3,$4,$5,0*
20,1,$1+$1,$4,$5,$6,$7,0*
20,1,$1+$1,$6,$7,$8,$9,0*
20,1,$1+$1,$8,$9,$2,$3,0*%
%AMHorizOval*
0 Thick line with rounded ends*
0 $1 width*
0 $2 $3 position (X,Y) of the first rounded end (center of the circle)*
0 $4 $5 position (X,Y) of the second rounded end (center of the circle)*
0 Add line between two ends*
20,1,$1,$2,$3,$4,$5,0*
0 Add two circle primitives to create the rounded ends*
1,1,$1,$2,$3*
1,1,$1,$4,$5*%
%AMRotRect*
0 Rectangle, with rotation*
0 The origin of the aperture is its center*
0 $1 length*
0 $2 width*
0 $3 Rotation angle, in degrees counterclockwise*
0 Add horizontal line*
21,1,$1,$2,0,0,$3*%
%AMOutline5P*
0 Free polygon, 5 corners , with rotation*
0 The origin of the aperture is its center*
0 number of corners: always 5*
0 $1 to $10 corner X, Y*
0 $11 Rotation angle, in degrees counterclockwise*
0 create outline with 5 corners*
4,1,5,$1,$2,$3,$4,$5,$6,$7,$8,$9,$10,$1,$2,$11*%
%AMOutline6P*
0 Free polygon, 6 corners , with rotation*
0 The origin of the aperture is its center*
0 number of corners: always 6*
0 $1 to $12 corner X, Y*
0 $13 Rotation angle, in degrees counterclockwise*
0 create outline with 6 corners*
4,1,6,$1,$2,$3,$4,$5,$6,$7,$8,$9,$10,$11,$12,$1,$2,$13*%
%AMOutline7P*
0 Free polygon, 7 corners , with rotation*
0 The origin of the aperture is its center*
0 number of corners: always 7*
0 $1 to $14 corner X, Y*
0 $15 Rotation angle, in degrees counterclockwise*
0 create outline with 7 corners*
4,1,7,$1,$2,$3,$4,$5,$6,$7,$8,$9,$10,$11,$12,$13,$14,$1,$2,$15*%
%AMOutline8P*
0 Free polygon, 8 corners , with rotation*
0 The origin of the aperture is its center*
0 number of corners: always 8*
0 $1 to $16 corner X, Y*
0 $17 Rotation angle, in degrees counterclockwise*
0 create outline with 8 corners*
4,1,8,$1,$2,$3,$4,$5,$6,$7,$8,$9,$10,$11,$12,$13,$14,$15,$16,$1,$2,$17*%
%AMFreePoly0*
4,1,6,0.150000,0.038638,0.026362,-0.085000,-0.150000,-0.085000,-0.150000,0.085000,0.150000,0.085000,0.150000,0.038638,0.150000,0.038638,$1*%
%AMFreePoly1*
4,1,6,0.150000,-0.038638,0.150000,-0.085000,-0.150000,-0.085000,-0.150000,0.085000,0.026362,0.085000,0.150000,-0.038638,0.150000,-0.038638,$1*%
%AMFreePoly2*
4,1,6,0.150000,-0.085000,-0.150000,-0.085000,-0.150000,-0.038638,-0.026362,0.085000,0.150000,0.085000,0.150000,-0.085000,0.150000,-0.085000,$1*%
%AMFreePoly3*
4,1,6,0.150000,-0.085000,-0.026362,-0.085000,-0.150000,0.038638,-0.150000,0.085000,0.150000,0.085000,0.150000,-0.085000,0.150000,-0.085000,$1*%
G04 Aperture macros list end*
%ADD10C,0.010000*%
%ADD11R,0.600000X1.250000*%
%ADD12R,1.200000X3.790000*%
%ADD13R,1.450000X1.400000*%
%ADD14R,1.000000X0.600000*%
%ADD15R,0.950000X0.850000*%
%ADD16RoundRect,0.047500X0.161220X-0.094045X-0.094045X0.161220X-0.161220X0.094045X0.094045X-0.161220X0*%
%ADD17RoundRect,0.047500X0.161220X0.094045X0.094045X0.161220X-0.161220X-0.094045X-0.094045X-0.161220X0*%
%ADD18RotRect,0.931000X0.931000X135.000000*%
%ADD19RoundRect,0.079500X-0.127279X-0.014849X-0.014849X-0.127279X0.127279X0.014849X0.014849X0.127279X0*%
%ADD20RoundRect,0.079500X-0.014849X0.127279X-0.127279X0.014849X0.014849X-0.127279X0.127279X-0.014849X0*%
%ADD21RoundRect,0.140000X0.140000X0.170000X-0.140000X0.170000X-0.140000X-0.170000X0.140000X-0.170000X0*%
%ADD22RoundRect,0.079500X0.079500X0.100500X-0.079500X0.100500X-0.079500X-0.100500X0.079500X-0.100500X0*%
%ADD23R,0.650000X0.400000*%
%ADD24RoundRect,0.079500X-0.079500X-0.100500X0.079500X-0.100500X0.079500X0.100500X-0.079500X0.100500X0*%
%ADD25RoundRect,0.079500X-0.100500X0.079500X-0.100500X-0.079500X0.100500X-0.079500X0.100500X0.079500X0*%
%ADD26RotRect,0.254000X0.812800X135.000000*%
%ADD27RotRect,0.254000X0.812800X45.000000*%
%ADD28RotRect,1.301800X1.301800X45.000000*%
%ADD29RoundRect,0.079500X0.127279X0.014849X0.014849X0.127279X-0.127279X-0.014849X-0.014849X-0.127279X0*%
%ADD30RoundRect,0.079500X0.014849X-0.127279X0.127279X-0.014849X-0.014849X0.127279X-0.127279X0.014849X0*%
%ADD31RoundRect,0.135000X0.226274X0.035355X0.035355X0.226274X-0.226274X-0.035355X-0.035355X-0.226274X0*%
%ADD32RoundRect,0.079500X0.100500X-0.079500X0.100500X0.079500X-0.100500X0.079500X-0.100500X-0.079500X0*%
%ADD33RotRect,0.750000X0.700000X45.000000*%
%ADD34RoundRect,0.140000X-0.170000X0.140000X-0.170000X-0.140000X0.170000X-0.140000X0.170000X0.140000X0*%
%ADD35R,2.500000X2.300000*%
%ADD36RoundRect,0.150000X-0.256326X-0.468458X0.468458X0.256326X0.256326X0.468458X-0.468458X-0.256326X0*%
%ADD37RoundRect,0.140000X-0.219203X-0.021213X-0.021213X-0.219203X0.219203X0.021213X0.021213X0.219203X0*%
%ADD38R,0.700000X0.200000*%
%ADD39RoundRect,0.140000X-0.140000X-0.170000X0.140000X-0.170000X0.140000X0.170000X-0.140000X0.170000X0*%
%ADD40R,0.609600X2.006600*%
%ADD41R,0.711200X4.191000*%
%ADD42R,3.505200X1.778000*%
%ADD43R,0.400000X0.650000*%
%ADD44RoundRect,0.150000X0.150000X-0.450000X0.150000X0.450000X-0.150000X0.450000X-0.150000X-0.450000X0*%
%ADD45R,2.000000X0.610000*%
%ADD46R,3.600000X2.680000*%
%ADD47R,0.200000X0.200000*%
%ADD48RoundRect,0.250000X0.900000X-1.000000X0.900000X1.000000X-0.900000X1.000000X-0.900000X-1.000000X0*%
%ADD49FreePoly0,0.000000*%
%ADD50FreePoly1,0.000000*%
%ADD51FreePoly2,0.000000*%
%ADD52FreePoly3,0.000000*%
%ADD53RotRect,0.420000X0.420000X45.000000*%
%ADD54R,1.778000X3.505200*%
%ADD55RotRect,0.600000X0.600000X225.000000*%
%ADD56RotRect,0.900000X0.900000X225.000000*%
%ADD57RotRect,0.500000X0.600000X225.000000*%
%ADD58HorizOval,0.200000X-0.141421X-0.141421X0.141421X0.141421X0*%
%ADD59HorizOval,0.200000X-0.141421X0.141421X0.141421X-0.141421X0*%
%ADD60RotRect,0.200000X0.200000X315.000000*%
%ADD61R,0.800000X1.100000*%
%ADD62R,1.200000X2.700000*%
%ADD63Outline5P,-0.425000X0.375000X0.275000X0.375000X0.425000X0.225000X0.425000X-0.375000X-0.425000X-0.375000X225.000000*%
%ADD64Outline5P,-0.425000X0.225000X-0.275000X0.375000X0.425000X0.375000X0.425000X-0.375000X-0.425000X-0.375000X225.000000*%
%ADD65Outline5P,-0.425000X0.375000X0.425000X0.375000X0.425000X-0.375000X-0.275000X-0.375000X-0.425000X-0.225000X225.000000*%
%ADD66Outline5P,-0.425000X0.375000X0.425000X0.375000X0.425000X-0.225000X0.275000X-0.375000X-0.425000X-0.375000X225.000000*%
%ADD67FreePoly0,270.000000*%
%ADD68FreePoly1,270.000000*%
%ADD69FreePoly2,270.000000*%
%ADD70FreePoly3,270.000000*%
%ADD71RotRect,0.420000X0.420000X315.000000*%
%ADD72RoundRect,0.150000X-0.512500X-0.150000X0.512500X-0.150000X0.512500X0.150000X-0.512500X0.150000X0*%
%ADD73RoundRect,0.140000X0.170000X-0.140000X0.170000X0.140000X-0.170000X0.140000X-0.170000X-0.140000X0*%
%ADD74RoundRect,0.150000X0.150000X-0.587500X0.150000X0.587500X-0.150000X0.587500X-0.150000X-0.587500X0*%
%ADD75RotRect,0.700000X0.200000X225.000000*%
G04 #@! TA.AperFunction,Profile*
%ADD76C,0.254000*%
G04 #@! TD*
G04 #@! TA.AperFunction,Profile*
%ADD77C,0.010000*%
G04 #@! TD*
G04 APERTURE END LIST*
D10*
X153635000Y-95310000D02*
X153485000Y-95460000D01*
X153245000Y-95460000D01*
X153245000Y-95200000D01*
X153635000Y-95200000D01*
X153635000Y-95310000D01*
G36*
X153635000Y-95310000D02*
G01*
X153485000Y-95460000D01*
X153245000Y-95460000D01*
X153245000Y-95200000D01*
X153635000Y-95200000D01*
X153635000Y-95310000D01*
G37*
X153635000Y-96000000D02*
X153635000Y-96110000D01*
X153245000Y-96110000D01*
X153245000Y-95850000D01*
X153485000Y-95850000D01*
X153635000Y-96000000D01*
G36*
X153635000Y-96000000D02*
G01*
X153635000Y-96110000D01*
X153245000Y-96110000D01*
X153245000Y-95850000D01*
X153485000Y-95850000D01*
X153635000Y-96000000D01*
G37*
X154445000Y-95460000D02*
X154205000Y-95460000D01*
X154055000Y-95310000D01*
X154055000Y-95200000D01*
X154445000Y-95200000D01*
X154445000Y-95460000D01*
G36*
X154445000Y-95460000D02*
G01*
X154205000Y-95460000D01*
X154055000Y-95310000D01*
X154055000Y-95200000D01*
X154445000Y-95200000D01*
X154445000Y-95460000D01*
G37*
X154445000Y-96110000D02*
X154055000Y-96110000D01*
X154055000Y-96000000D01*
X154205000Y-95850000D01*
X154445000Y-95850000D01*
X154445000Y-96110000D01*
G36*
X154445000Y-96110000D02*
G01*
X154055000Y-96110000D01*
X154055000Y-96000000D01*
X154205000Y-95850000D01*
X154445000Y-95850000D01*
X154445000Y-96110000D01*
G37*
X143810000Y-81245000D02*
X143660000Y-81395000D01*
X143550000Y-81395000D01*
X143550000Y-81005000D01*
X143810000Y-81005000D01*
X143810000Y-81245000D01*
G36*
X143810000Y-81245000D02*
G01*
X143660000Y-81395000D01*
X143550000Y-81395000D01*
X143550000Y-81005000D01*
X143810000Y-81005000D01*
X143810000Y-81245000D01*
G37*
X143810000Y-81965000D02*
X143810000Y-82205000D01*
X143550000Y-82205000D01*
X143550000Y-81815000D01*
X143660000Y-81815000D01*
X143810000Y-81965000D01*
G36*
X143810000Y-81965000D02*
G01*
X143810000Y-82205000D01*
X143550000Y-82205000D01*
X143550000Y-81815000D01*
X143660000Y-81815000D01*
X143810000Y-81965000D01*
G37*
X144460000Y-81395000D02*
X144350000Y-81395000D01*
X144200000Y-81245000D01*
X144200000Y-81005000D01*
X144460000Y-81005000D01*
X144460000Y-81395000D01*
G36*
X144460000Y-81395000D02*
G01*
X144350000Y-81395000D01*
X144200000Y-81245000D01*
X144200000Y-81005000D01*
X144460000Y-81005000D01*
X144460000Y-81395000D01*
G37*
X144460000Y-82205000D02*
X144200000Y-82205000D01*
X144200000Y-81965000D01*
X144350000Y-81815000D01*
X144460000Y-81815000D01*
X144460000Y-82205000D01*
G36*
X144460000Y-82205000D02*
G01*
X144200000Y-82205000D01*
X144200000Y-81965000D01*
X144350000Y-81815000D01*
X144460000Y-81815000D01*
X144460000Y-82205000D01*
G37*
D11*
X104680000Y-124185000D03*
X103580000Y-124185000D03*
X102480000Y-124185000D03*
X101380000Y-124185000D03*
X100280000Y-124185000D03*
X99180000Y-124185000D03*
X98080000Y-124185000D03*
X96980000Y-124185000D03*
D12*
X95830000Y-126665000D03*
D13*
X106305000Y-125910000D03*
D14*
X106530000Y-127160000D03*
D15*
X105605000Y-128135000D03*
D16*
X110279619Y-120547386D03*
X110633173Y-120193833D03*
X110986726Y-119840280D03*
X111340280Y-119486726D03*
X111693833Y-119133173D03*
X112047386Y-118779619D03*
D17*
X112047386Y-117860381D03*
X111693833Y-117506827D03*
X111340280Y-117153274D03*
X110986726Y-116799720D03*
X110633173Y-116446167D03*
X110279619Y-116092614D03*
D16*
X109360381Y-116092614D03*
X109006827Y-116446167D03*
X108653274Y-116799720D03*
X108299720Y-117153274D03*
X107946167Y-117506827D03*
X107592614Y-117860381D03*
D17*
X107592614Y-118779619D03*
X107946167Y-119133173D03*
X108299720Y-119486726D03*
X108653274Y-119840280D03*
X109006827Y-120193833D03*
X109360381Y-120547386D03*
D18*
X109820000Y-119186206D03*
X110686206Y-118320000D03*
X108953794Y-118320000D03*
X109820000Y-117453794D03*
D19*
X113146048Y-120426048D03*
X113633952Y-120913952D03*
D20*
X106703952Y-120916048D03*
X106216048Y-121403952D03*
D21*
X105580000Y-117250000D03*
X104620000Y-117250000D03*
D22*
X97335000Y-121560000D03*
X96645000Y-121560000D03*
D23*
X112130000Y-125540000D03*
X112130000Y-126190000D03*
X112130000Y-126840000D03*
X114030000Y-126840000D03*
X114030000Y-125540000D03*
D24*
X109455000Y-122500000D03*
X110145000Y-122500000D03*
D25*
X110240000Y-125935000D03*
X110240000Y-126625000D03*
D26*
X137309575Y-112675954D03*
X137668785Y-113035164D03*
X138027995Y-113394374D03*
X138387205Y-113753584D03*
X138746416Y-114112795D03*
X139105626Y-114472005D03*
X139464836Y-114831215D03*
X139824046Y-115190425D03*
D27*
X140775954Y-115190425D03*
X141135164Y-114831215D03*
X141494374Y-114472005D03*
X141853584Y-114112795D03*
X142212795Y-113753584D03*
X142572005Y-113394374D03*
X142931215Y-113035164D03*
X143290425Y-112675954D03*
D26*
X143290425Y-111724046D03*
X142931215Y-111364836D03*
X142572005Y-111005626D03*
X142212795Y-110646416D03*
X141853584Y-110287205D03*
X141494374Y-109927995D03*
X141135164Y-109568785D03*
X140775954Y-109209575D03*
D27*
X139824046Y-109209575D03*
X139464836Y-109568785D03*
X139105626Y-109927995D03*
X138746416Y-110287205D03*
X138387205Y-110646416D03*
X138027995Y-111005626D03*
X137668785Y-111364836D03*
X137309575Y-111724046D03*
D28*
X139096646Y-112200000D03*
X140300000Y-113403354D03*
X140300000Y-110996646D03*
X141503354Y-112200000D03*
D20*
X140383952Y-116796048D03*
X139896048Y-117283952D03*
X141523952Y-106546048D03*
X141036048Y-107033952D03*
D29*
X136923952Y-109363952D03*
X136436048Y-108876048D03*
X136143952Y-110143952D03*
X135656048Y-109656048D03*
D30*
X142686048Y-108703952D03*
X143173952Y-108216048D03*
X143226048Y-109233952D03*
X143713952Y-108746048D03*
D20*
X136993952Y-106676048D03*
X136506048Y-107163952D03*
D30*
X137692322Y-105997678D03*
X138180226Y-105509774D03*
D31*
X144320624Y-108100624D03*
X143599376Y-107379376D03*
D32*
X181860000Y-116365000D03*
X181860000Y-115675000D03*
D29*
X137683952Y-108593952D03*
X137196048Y-108106048D03*
D33*
X138676256Y-107820503D03*
X139630850Y-106865909D03*
X138923744Y-106158803D03*
X137969150Y-107113397D03*
D30*
X142116048Y-108123952D03*
X142603952Y-107636048D03*
D25*
X183922100Y-124835000D03*
X183922100Y-125525000D03*
D34*
X182932100Y-124810000D03*
X182932100Y-125770000D03*
D35*
X180272100Y-130680000D03*
X175972100Y-130680000D03*
D22*
X96230000Y-98552000D03*
X95540000Y-98552000D03*
X96230000Y-97790000D03*
X95540000Y-97790000D03*
D36*
X130496098Y-112160400D03*
X131167849Y-112832151D03*
X131839600Y-113503902D03*
X133448268Y-111895234D03*
X132776517Y-111223483D03*
X132104766Y-110551732D03*
D30*
X141576048Y-107583952D03*
X142063952Y-107096048D03*
X136656048Y-105943952D03*
X137143952Y-105456048D03*
D37*
X114180589Y-119360589D03*
X114859411Y-120039411D03*
D38*
X98800000Y-111950000D03*
X98800000Y-111550000D03*
X98800000Y-111150000D03*
X98800000Y-110750000D03*
X97900000Y-110750000D03*
X97900000Y-111150000D03*
X97900000Y-111550000D03*
X97900000Y-111950000D03*
D24*
X129045000Y-107090000D03*
X129735000Y-107090000D03*
D22*
X96230000Y-87503000D03*
X95540000Y-87503000D03*
D25*
X176300000Y-78925000D03*
X176300000Y-79615000D03*
D30*
X157771048Y-80711952D03*
X158258952Y-80224048D03*
D39*
X155270000Y-95180000D03*
X156230000Y-95180000D03*
D22*
X96230000Y-94996000D03*
X95540000Y-94996000D03*
D40*
X113495001Y-75329000D03*
X112495001Y-75329000D03*
X111495000Y-75329000D03*
X110495002Y-75329000D03*
X109495002Y-75329000D03*
X108495001Y-75329000D03*
X107495001Y-75329000D03*
X106495003Y-75329000D03*
X105495002Y-75329000D03*
X104495001Y-75329000D03*
X103495001Y-75329000D03*
X102495000Y-75329000D03*
X101495002Y-75329000D03*
X100495002Y-75329000D03*
X99495001Y-75329000D03*
X98495001Y-75329000D03*
D41*
X97498701Y-73220800D03*
X114491301Y-73220800D03*
D39*
X159560000Y-94500000D03*
X160520000Y-94500000D03*
D22*
X170145000Y-132550000D03*
X169455000Y-132550000D03*
D42*
X171830000Y-74734100D03*
X171830000Y-69501700D03*
D22*
X96230000Y-92075000D03*
X95540000Y-92075000D03*
D19*
X164316048Y-86606048D03*
X164803952Y-87093952D03*
D22*
X180545000Y-110300000D03*
X179855000Y-110300000D03*
D39*
X145420000Y-82280000D03*
X146380000Y-82280000D03*
D21*
X154910000Y-93890000D03*
X153950000Y-93890000D03*
D43*
X171700000Y-133000000D03*
X172350000Y-133000000D03*
X173000000Y-133000000D03*
X173000000Y-131100000D03*
X172350000Y-131100000D03*
X171700000Y-131100000D03*
D44*
X176750000Y-99137500D03*
X177700000Y-99137500D03*
X178650000Y-99137500D03*
X178650000Y-96862500D03*
X177700000Y-96862500D03*
X176750000Y-96862500D03*
D22*
X96230000Y-85725000D03*
X95540000Y-85725000D03*
D45*
X127000000Y-93000000D03*
X127000000Y-94000000D03*
X127000000Y-95000000D03*
X127000000Y-96000000D03*
X127000000Y-97000000D03*
X127000000Y-98000000D03*
X127000000Y-99000000D03*
X127000000Y-100000000D03*
X127000000Y-101000000D03*
X127000000Y-102000000D03*
X127000000Y-103000000D03*
X127000000Y-104000000D03*
X127000000Y-105000000D03*
X127000000Y-106000000D03*
X127000000Y-107000000D03*
D46*
X124200000Y-90010000D03*
X124200000Y-109990000D03*
D39*
X155270000Y-96180000D03*
X156230000Y-96180000D03*
D47*
X174809000Y-82673000D03*
X175149000Y-82373000D03*
X174469000Y-82373000D03*
D48*
X176320000Y-74377500D03*
X176320000Y-70077500D03*
D24*
X161807000Y-82666000D03*
X162497000Y-82666000D03*
D22*
X96230000Y-91313000D03*
X95540000Y-91313000D03*
D49*
X153440000Y-95330000D03*
D50*
X153440000Y-95980000D03*
D51*
X154250000Y-95980000D03*
D52*
X154250000Y-95330000D03*
D53*
X153845000Y-95655000D03*
D25*
X97028000Y-87539000D03*
X97028000Y-88229000D03*
D20*
X135798952Y-113081048D03*
X135311048Y-113568952D03*
D22*
X96230000Y-84963000D03*
X95540000Y-84963000D03*
X96230000Y-88265000D03*
X95540000Y-88265000D03*
D54*
X175675900Y-126200000D03*
X180908300Y-126200000D03*
D25*
X97025000Y-84999000D03*
X97025000Y-85689000D03*
D19*
X160309774Y-89869774D03*
X160797678Y-90357678D03*
D55*
X158896170Y-86281996D03*
X158012287Y-85398113D03*
X157128403Y-84514229D03*
X156244520Y-83630346D03*
X158012287Y-87165879D03*
D56*
X157128403Y-86281996D03*
X156244520Y-85398113D03*
D57*
X155360637Y-84514229D03*
D55*
X157128403Y-88049763D03*
D56*
X156244520Y-87165879D03*
X155360637Y-86281996D03*
D55*
X154476753Y-85398113D03*
X156244520Y-88933646D03*
X155360637Y-88049763D03*
X154476753Y-87165879D03*
X153592870Y-86281996D03*
D58*
X161264978Y-85787021D03*
X160982135Y-85504179D03*
X160699293Y-85221336D03*
X160416450Y-84938493D03*
X160133607Y-84655650D03*
X159850765Y-84372808D03*
X159567922Y-84089965D03*
X159285079Y-83807122D03*
X159002236Y-83524280D03*
X158719394Y-83241437D03*
X158436551Y-82958594D03*
X158153708Y-82675751D03*
X157870866Y-82392909D03*
X157588023Y-82110066D03*
X157305180Y-81827223D03*
X157022337Y-81544381D03*
X156739495Y-81261538D03*
D59*
X155749545Y-81261538D03*
X155466703Y-81544381D03*
X155183860Y-81827223D03*
X154901017Y-82110066D03*
X154618174Y-82392909D03*
X154335332Y-82675751D03*
X154052489Y-82958594D03*
X153769646Y-83241437D03*
X153486804Y-83524280D03*
X153203961Y-83807122D03*
X152921118Y-84089965D03*
X152638275Y-84372808D03*
X152355433Y-84655650D03*
X152072590Y-84938493D03*
X151789747Y-85221336D03*
X151506905Y-85504179D03*
X151224062Y-85787021D03*
D58*
X151224062Y-86776971D03*
X151506905Y-87059813D03*
X151789747Y-87342656D03*
X152072590Y-87625499D03*
X152355433Y-87908342D03*
X152638275Y-88191184D03*
X152921118Y-88474027D03*
X153203961Y-88756870D03*
X153486804Y-89039712D03*
X153769646Y-89322555D03*
X154052489Y-89605398D03*
X154335332Y-89888241D03*
X154618174Y-90171083D03*
X154901017Y-90453926D03*
X155183860Y-90736769D03*
X155466703Y-91019611D03*
X155749545Y-91302454D03*
D59*
X156739495Y-91302454D03*
X157022337Y-91019611D03*
X157305180Y-90736769D03*
X157588023Y-90453926D03*
X157870866Y-90171083D03*
X158153708Y-89888241D03*
X158436551Y-89605398D03*
X158719394Y-89322555D03*
X159002236Y-89039712D03*
X159285079Y-88756870D03*
X159567922Y-88474027D03*
X159850765Y-88191184D03*
X160133607Y-87908342D03*
X160416450Y-87625499D03*
X160699293Y-87342656D03*
X160982135Y-87059813D03*
X161264978Y-86776971D03*
D60*
X176648000Y-81538000D03*
X176195452Y-81509716D03*
X176676284Y-81990548D03*
D61*
X134285000Y-128750000D03*
X135555000Y-128750000D03*
X136825000Y-128750000D03*
X138095000Y-128750000D03*
X139365000Y-128750000D03*
X140635000Y-128750000D03*
X141905000Y-128750000D03*
X143175000Y-128750000D03*
X144445000Y-128750000D03*
X145715000Y-128750000D03*
X134285000Y-123250000D03*
X135555000Y-123250000D03*
X136825000Y-123250000D03*
X138095000Y-123250000D03*
X139365000Y-123250000D03*
X140635000Y-123250000D03*
X141905000Y-123250000D03*
X143175000Y-123250000D03*
X144445000Y-123250000D03*
X145715000Y-123250000D03*
D62*
X148210000Y-128450000D03*
X148210000Y-123550000D03*
X131790000Y-128450000D03*
X131790000Y-123550000D03*
D63*
X163386066Y-87238262D03*
D64*
X162431472Y-88192856D03*
D65*
X163173934Y-88935318D03*
D66*
X164128528Y-87980724D03*
D67*
X144330000Y-81200000D03*
D68*
X143680000Y-81200000D03*
D69*
X143680000Y-82010000D03*
D70*
X144330000Y-82010000D03*
D71*
X144005000Y-81605000D03*
D39*
X145420000Y-81080000D03*
X146380000Y-81080000D03*
D47*
X181812000Y-118011000D03*
X181512000Y-117671000D03*
X181512000Y-118351000D03*
D19*
X161486048Y-88756048D03*
X161973952Y-89243952D03*
D22*
X170145000Y-131500000D03*
X169455000Y-131500000D03*
D19*
X160849774Y-89329774D03*
X161337678Y-89817678D03*
D32*
X180230000Y-75445000D03*
X180230000Y-74755000D03*
D30*
X164006048Y-89603952D03*
X164493952Y-89116048D03*
D72*
X172800000Y-111500000D03*
X172800000Y-112450000D03*
X172800000Y-113400000D03*
X175075000Y-113400000D03*
X175075000Y-112450000D03*
X175075000Y-111500000D03*
D61*
X134285000Y-76750000D03*
X135555000Y-76750000D03*
X136825000Y-76750000D03*
X138095000Y-76750000D03*
X139365000Y-76750000D03*
X140635000Y-76750000D03*
X141905000Y-76750000D03*
X143175000Y-76750000D03*
X144445000Y-76750000D03*
X145715000Y-76750000D03*
X134285000Y-71250000D03*
X135555000Y-71250000D03*
X136825000Y-71250000D03*
X138095000Y-71250000D03*
X139365000Y-71250000D03*
X140635000Y-71250000D03*
X141905000Y-71250000D03*
X143175000Y-71250000D03*
X144445000Y-71250000D03*
X145715000Y-71250000D03*
D62*
X148210000Y-76450000D03*
X148210000Y-71550000D03*
X131790000Y-76450000D03*
X131790000Y-71550000D03*
D30*
X160259048Y-81524952D03*
X160746952Y-81037048D03*
D19*
X159769774Y-90409774D03*
X160257678Y-90897678D03*
D24*
X162101000Y-84581000D03*
X162791000Y-84581000D03*
D22*
X174715000Y-91870000D03*
X174025000Y-91870000D03*
X96230000Y-93726000D03*
X95540000Y-93726000D03*
D25*
X97028000Y-91349000D03*
X97028000Y-92039000D03*
D44*
X176750000Y-103300000D03*
X177700000Y-103300000D03*
X178650000Y-103300000D03*
X178650000Y-101025000D03*
X177700000Y-101025000D03*
X176750000Y-101025000D03*
D73*
X179360000Y-75370000D03*
X179360000Y-74410000D03*
D74*
X171150000Y-129337500D03*
X173050000Y-129337500D03*
X172100000Y-127462500D03*
D75*
X155527528Y-104511528D03*
X155244685Y-104228685D03*
X154961843Y-103945843D03*
X154679000Y-103663000D03*
X154042604Y-104299396D03*
X154325447Y-104582239D03*
X154608289Y-104865081D03*
X154891132Y-105147924D03*
D22*
X174745000Y-90500000D03*
X174055000Y-90500000D03*
D76*
X83000000Y-71000000D02*
G75*
G02*
X85000000Y-69000000I2000000J0D01*
G01*
X156000000Y-136000000D02*
X85000000Y-131000000D01*
X88707107Y-82292893D02*
G75*
G02*
X89000000Y-83000000I-707107J-707107D01*
G01*
X188000000Y-118000000D02*
X188000000Y-82000000D01*
X89000000Y-117000000D02*
G75*
G02*
X88707107Y-117707107I-1000000J0D01*
G01*
X182000000Y-64000000D02*
X188000000Y-82000000D01*
X182000000Y-64000000D02*
X156000000Y-64000000D01*
X89000000Y-83000000D02*
X89000000Y-117000000D01*
X83000000Y-122500000D02*
X83000000Y-129000000D01*
X188000000Y-118000000D02*
X182000000Y-136000000D01*
X83292893Y-78207107D02*
G75*
G02*
X83000000Y-77500000I707107J707107D01*
G01*
X88707107Y-82292893D02*
X83292893Y-78207107D01*
X156000000Y-64000000D02*
X85000000Y-69000000D01*
X88707107Y-117707107D02*
X83292893Y-121792893D01*
X83000000Y-77500000D02*
X83000000Y-71000000D01*
X83000000Y-122500000D02*
G75*
G02*
X83292893Y-121792893I1000000J0D01*
G01*
X85000000Y-131000000D02*
G75*
G02*
X83000000Y-129000000I0J2000000D01*
G01*
X156000000Y-136000000D02*
X182000000Y-136000000D01*
D77*
X179354000Y-86650000D02*
X179354000Y-86350000D01*
X180004000Y-86350000D02*
X180004000Y-86650000D01*
X179354000Y-86350000D02*
G75*
G02*
X179679000Y-86025000I325000J0D01*
G01*
X179679000Y-86025000D02*
G75*
G02*
X180004000Y-86350000I0J-325000D01*
G01*
X179679000Y-86975000D02*
G75*
G02*
X179354000Y-86650000I0J325000D01*
G01*
X180004000Y-86650000D02*
G75*
G02*
X179679000Y-86975000I-325000J0D01*
G01*
M02*
