M48
; DRILL file {KiCad 8.0.1-8.0.1-1~ubuntu22.04.1} date 2024-03-31T08:55:40-0500
; FORMAT={-:-/ absolute / metric / decimal}
; #@! TF.CreationDate,2024-03-31T08:55:40-05:00
; #@! TF.GenerationSoftware,Kicad,Pcbnew,8.0.1-8.0.1-1~ubuntu22.04.1
; #@! TF.FileFunction,Plated,1,4,PTH
FMAT,2
METRIC
; #@! TA.AperFunction,Plated,PTH,ViaDrill
T1C0.250
; #@! TA.AperFunction,Plated,PTH,ViaDrill
T2C0.300
; #@! TA.AperFunction,Plated,PTH,ComponentDrill
T3C0.300
; #@! TA.AperFunction,Plated,PTH,ViaDrill
T4C0.400
; #@! TA.AperFunction,Plated,PTH,ComponentDrill
T5C0.400
; #@! TA.AperFunction,Plated,PTH,ViaDrill
T6C0.500
; #@! TA.AperFunction,Plated,PTH,ComponentDrill
T7C0.500
; #@! TA.AperFunction,Plated,PTH,ComponentDrill
T8C0.600
; #@! TA.AperFunction,Plated,PTH,ComponentDrill
T9C0.890
; #@! TA.AperFunction,Plated,PTH,ComponentDrill
T10C1.000
; #@! TA.AperFunction,Plated,PTH,ComponentDrill
T11C1.020
%
G90
G05
T1
X94.6Y-83.49
X94.6Y-89.84
X94.6Y-96.19
X94.677Y-102.505
X94.964Y-121.47
X95.5Y-72.5
X95.749Y-109.64
X96.52Y-126.67
X105.51Y-126.67
X105.59Y-121.67
X106.3Y-120.68
X108.954Y-118.32
X109.82Y-117.454
X109.9Y-121.15
X110.78Y-121.08
X111.73Y-116.83
X112.363Y-121.33
X112.45Y-124.39
X112.55Y-118.87
X112.59Y-126.84
X112.78Y-117.53
X113.51Y-119.88
X113.72Y-124.41
X114.06Y-120.71
X114.52Y-126.85
X114.971Y-120.66
X114.98Y-124.4
X115.13Y-123.33
X116.51Y-123.33
X117.31Y-123.9
X120.07Y-125.59
X121.34Y-124.4
X122.61Y-74.0
X128.96Y-75.0
X130.25Y-107.25
X131.0Y-111.75
X131.59Y-112.36
X132.99Y-109.67
X134.438Y-115.735
X135.37Y-75.01
X135.857Y-109.093
X135.984Y-110.49
X136.119Y-106.801
X136.27Y-113.977
X136.49Y-116.39
X136.67Y-109.84
X137.292Y-115.957
X137.383Y-110.604
X137.48Y-120.86
X137.49Y-121.65
X137.52Y-120.04
X137.68Y-119.05
X137.76Y-115.42
X138.09Y-122.53
X138.095Y-109.005
X138.24Y-118.49
X138.642Y-114.935
X138.8Y-121.78
X139.68Y-117.51
X140.03Y-121.856
X140.302Y-112.204
X140.58Y-115.25
X140.61Y-117.02
X140.664Y-122.422
X141.47Y-121.899
X141.55Y-115.31
X141.68Y-74.99
X141.975Y-122.582
X142.58Y-114.63
X142.635Y-121.704
X143.2Y-122.39
X143.5Y-80.9
X143.88Y-121.717
X144.0Y-81.6
X144.46Y-122.39
X145.386Y-121.777
X145.827Y-122.48
X147.14Y-121.64
X152.81Y-93.9
X152.85Y-95.99
X153.45Y-73.56
X153.85Y-95.66
X155.1Y-105.4
X156.66Y-96.18
X156.68Y-95.19
X160.14Y-90.24
X160.51Y-91.16
X160.622Y-74.993
X161.02Y-90.6
X161.08Y-89.2
X161.58Y-90.06
X161.714Y-88.614
X162.23Y-89.48
X162.27Y-88.32
X164.01Y-88.1
X164.78Y-88.85
X165.05Y-87.35
X171.51Y-77.1
X177.909Y-118.546
X182.19Y-117.612
T2
X94.7Y-120.2
X94.705Y-94.979
X94.75Y-93.769
X94.863Y-98.871
X94.887Y-97.539
X94.9Y-117.7
X94.9Y-119.0
X95.0Y-116.5
X95.01Y-84.97
X95.01Y-85.82
X95.123Y-87.51
X95.123Y-88.36
X95.153Y-91.32
X95.153Y-92.17
X95.299Y-82.448
X95.8Y-111.7
X95.865Y-83.014
X95.884Y-79.919
X96.2Y-110.95
X96.5Y-72.5
X96.684Y-79.919
X97.5Y-73.0
X97.503Y-120.904
X97.7Y-110.6
X97.8Y-97.5
X97.8Y-98.8
X98.5Y-74.0
X98.7Y-127.9
X98.8Y-110.5
X99.2Y-112.6
X99.5Y-74.0
X99.58Y-125.61
X100.0Y-112.2
X100.2Y-111.15
X100.497Y-73.989
X100.7Y-127.9
X101.5Y-74.0
X101.694Y-117.221
X101.716Y-125.992
X102.2Y-128.0
X102.5Y-74.0
X103.5Y-74.0
X103.98Y-117.348
X104.5Y-74.0
X105.5Y-74.0
X106.012Y-117.602
X106.5Y-73.97
X108.3Y-125.497
X109.2Y-123.5
X109.44Y-73.77
X109.95Y-123.9
X110.2Y-73.77
X110.843Y-126.233
X112.559Y-73.97
X114.5Y-73.0
X116.25Y-75.0
X116.26Y-126.16
X118.0Y-86.0
X118.0Y-89.0
X118.0Y-92.0
X125.067Y-91.647
X125.16Y-125.7
X125.7Y-111.0
X131.075Y-76.475
X131.8Y-128.4
X132.173Y-71.812
X132.2Y-122.4
X133.64Y-118.93
X134.25Y-71.25
X134.37Y-109.57
X134.51Y-119.5
X135.0Y-114.45
X135.4Y-117.26
X135.527Y-77.455
X135.575Y-71.325
X136.81Y-129.04
X136.825Y-71.25
X136.853Y-77.274
X137.01Y-111.98
X137.96Y-107.12
X138.075Y-76.713
X138.1Y-71.3
X138.44Y-105.35
X138.5Y-131.2
X139.34Y-124.46
X139.35Y-71.325
X139.365Y-76.75
X139.5Y-131.5
X139.63Y-106.87
X140.4Y-131.5
X140.625Y-71.325
X140.635Y-76.75
X141.76Y-106.3
X141.91Y-71.34
X141.91Y-76.73
X142.74Y-107.4
X143.15Y-77.5
X143.18Y-71.324
X143.59Y-108.37
X144.385Y-125.447
X144.476Y-71.288
X145.394Y-114.075
X145.4Y-82.8
X145.689Y-71.27
X146.8Y-82.3
X146.9Y-81.1
X148.0Y-71.0
X148.0Y-77.0
X148.2Y-128.4
X148.21Y-123.55
X150.551Y-75.294
X151.814Y-75.292
X151.98Y-124.45
X152.88Y-124.46
X153.102Y-75.292
X153.4Y-104.7
X153.69Y-105.604
X154.3Y-126.1
X155.2Y-103.0
X155.25Y-96.78
X155.643Y-75.279
X155.8Y-104.6
X155.89Y-124.7
X156.03Y-93.85
X156.067Y-103.447
X156.84Y-124.7
X156.914Y-75.303
X157.47Y-82.81
X157.586Y-80.363
X158.156Y-75.293
X158.458Y-81.967
X158.5Y-79.968
X159.43Y-82.365
X159.44Y-125.0
X159.441Y-75.288
X159.457Y-81.402
X160.056Y-81.808
X160.71Y-125.0
X161.125Y-80.38
X161.934Y-82.254
X162.0Y-126.1
X162.006Y-75.306
X162.199Y-84.23
X162.85Y-82.683
X163.172Y-84.589
X163.25Y-125.0
X164.5Y-125.0
X167.8Y-123.2
X168.137Y-79.772
X168.684Y-92.366
X168.694Y-87.328
X168.71Y-86.028
X168.753Y-88.551
X168.769Y-89.859
X169.0Y-131.5
X169.0Y-132.5
X169.005Y-85.2
X169.593Y-91.113
X169.6Y-110.16
X170.1Y-117.01
X170.149Y-122.012
X171.14Y-133.49
X171.4Y-131.5
X171.615Y-127.885
X172.0Y-78.5
X172.25Y-115.0
X172.4Y-112.5
X172.4Y-133.567
X173.1Y-113.9
X173.784Y-81.757
X173.9Y-112.4
X174.43Y-72.53
X174.481Y-82.023
X174.5Y-110.0
X174.6Y-112.5
X174.96Y-73.07
X175.0Y-130.0
X175.0Y-131.0
X175.181Y-82.023
X175.4Y-122.7
X175.67Y-73.79
X175.949Y-81.747
X176.0Y-130.0
X176.0Y-131.0
X176.32Y-74.377
X176.443Y-82.241
X176.73Y-79.51
X176.82Y-74.878
X177.0Y-130.0
X177.0Y-131.0
X177.062Y-83.79
X177.28Y-75.36
X177.46Y-78.1
X177.6Y-70.2
X177.7Y-103.3
X177.7Y-99.137
X177.718Y-82.311
X178.149Y-83.821
X178.19Y-78.12
X178.387Y-82.65
X178.65Y-96.862
X178.65Y-101.025
X178.693Y-85.807
X179.4Y-74.0
X179.4Y-110.3
X180.2Y-74.4
X181.272Y-124.95
X181.272Y-125.55
X181.272Y-126.15
X181.272Y-126.75
X181.272Y-127.35
X181.835Y-83.262
X181.872Y-124.55
X182.609Y-84.839
X182.93Y-126.2
X183.472Y-124.55
X183.95Y-125.92
T3
X154.477Y-86.282
X155.361Y-85.398
X155.361Y-87.166
X156.245Y-84.514
X156.245Y-86.282
X156.245Y-88.05
X157.128Y-85.398
X157.128Y-87.166
X158.012Y-86.282
T4
X95.96Y-121.53
T5
X179.0Y-115.0
X179.0Y-115.85
X179.0Y-116.7
X179.0Y-117.55
X179.0Y-118.4
X179.0Y-119.25
X179.0Y-120.1
X179.0Y-120.95
X180.329Y-80.1
X180.329Y-81.7
X180.329Y-82.5
X180.329Y-83.3
X180.329Y-84.1
X180.329Y-85.7
X180.35Y-115.0
X180.35Y-115.85
X180.35Y-116.7
X180.35Y-117.55
X180.35Y-118.4
X180.35Y-119.25
X180.35Y-120.1
X180.35Y-120.95
X181.029Y-80.5
X181.029Y-81.3
X181.029Y-82.1
X181.029Y-83.7
X181.029Y-84.5
X181.029Y-85.3
T6
X96.04Y-114.43
X113.69Y-76.3
X144.46Y-77.66
X159.35Y-95.36
X161.57Y-94.51
X171.0Y-74.0
X171.0Y-75.0
X172.0Y-74.0
X172.0Y-75.0
X172.5Y-129.9
X172.59Y-128.91
X173.0Y-74.0
X173.0Y-75.0
X173.5Y-129.9
X173.6Y-128.9
T9
X171.7Y-94.285
X171.7Y-96.825
X171.7Y-99.365
X171.7Y-101.905
X171.7Y-104.445
X174.24Y-95.555
X174.24Y-98.095
X174.24Y-100.635
X174.24Y-103.175
X174.24Y-105.715
T10
X90.5Y-86.5
X90.5Y-89.04
X90.5Y-91.58
X90.5Y-94.12
X90.5Y-96.66
X90.5Y-99.2
X90.5Y-101.74
X90.5Y-104.28
X90.5Y-106.82
X90.5Y-109.36
X90.5Y-111.9
X90.5Y-114.44
X136.4Y-67.3
X138.94Y-67.3
X141.48Y-67.3
X144.02Y-67.3
X146.56Y-67.3
X149.1Y-67.3
X151.64Y-67.3
X154.18Y-67.3
T11
X183.13Y-93.215
X183.13Y-106.785
X185.16Y-93.215
X185.16Y-106.785
T7
G00X181.219Y-78.77
M15
G01X180.619Y-78.77
M16
G05
G00X181.219Y-87.03
M15
G01X180.619Y-87.03
M16
G05
G00X185.619Y-78.41
M15
G01X185.019Y-78.41
M16
G05
G00X185.619Y-87.39
M15
G01X185.019Y-87.39
M16
G05
T8
G00X180.73Y-113.65
M15
G01X179.23Y-113.65
M16
G05
G00X180.73Y-122.3
M15
G01X179.23Y-122.3
M16
G05
G00X183.76Y-113.65
M15
G01X182.96Y-113.65
M16
G05
G00X183.76Y-122.3
M15
G01X182.96Y-122.3
M16
G05
M30
